<svg width="120" height="121" viewBox="0 0 120 121" fill="none" xmlns="http://www.w3.org/2000/svg">
<g clip-path="url(#clip0_122_434)">
<path d="M104.77 25.14L67.04 2.73999C64.79 1.40999 62.27 0.73999 59.76 0.73999C57.25 0.73999 54.73 1.40999 52.48 2.74999L14.74 25.15C10.24 27.82 7.45996 32.76 7.45996 38.11V82.91C7.45996 88.26 10.23 93.2 14.74 95.87L52.47 118.27C54.72 119.61 57.23 120.27 59.75 120.27C62.26 120.27 64.78 119.6 67.03 118.27L104.77 95.87C109.27 93.2 112.05 88.25 112.05 82.91V38.1C112.05 32.76 109.28 27.81 104.77 25.14V25.14ZM75.55 95.09L75.61 98.31C75.61 98.7 75.36 99.14 75.06 99.3L73.15 100.4C72.85 100.55 72.59 100.37 72.59 99.98L72.56 96.81C70.93 97.49 69.27 97.65 68.22 97.23C68.02 97.15 67.93 96.86 68.01 96.52L68.7 93.61C68.76 93.38 68.88 93.15 69.04 93.01C69.1 92.95 69.16 92.91 69.22 92.88C69.33 92.82 69.44 92.81 69.53 92.85C70.67 93.23 72.12 93.05 73.52 92.35C75.3 91.45 76.49 89.63 76.47 87.83C76.45 86.19 75.57 85.52 73.42 85.5C70.68 85.51 68.12 84.97 68.08 80.93C68.05 77.61 69.77 74.15 72.51 71.97L72.48 68.72C72.48 68.32 72.72 67.88 73.03 67.72L74.88 66.54C75.18 66.39 75.44 66.58 75.44 66.97L75.47 70.22C76.83 69.68 78.01 69.53 79.08 69.78C79.31 69.84 79.42 70.16 79.32 70.53L78.6 73.41C78.54 73.63 78.42 73.85 78.27 73.99C78.2142 74.0461 78.1501 74.0934 78.08 74.13C77.98 74.18 77.89 74.19 77.8 74.18C77.31 74.07 76.15 73.82 74.32 74.74C72.4 75.71 71.73 77.38 71.74 78.62C71.76 80.1 72.51 80.55 75.13 80.59C78.62 80.65 80.12 82.17 80.16 85.68C80.21 89.12 78.37 92.83 75.55 95.09V95.09ZM101.89 34.59L66.19 56.64C61.74 59.24 58.46 62.16 58.45 67.53V111.52C58.45 114.73 59.75 116.81 61.74 117.42C61.09 117.53 60.42 117.61 59.76 117.61C57.67 117.61 55.61 117.04 53.8 115.97L16.07 93.57C12.38 91.38 10.09 87.29 10.09 82.9V38.1C10.09 33.71 12.38 29.62 16.07 27.43L53.81 5.02999C55.62 3.95999 57.68 3.38999 59.77 3.38999C61.86 3.38999 63.92 3.95999 65.73 5.02999L103.47 27.43C106.58 29.28 108.68 32.47 109.27 36.06C108 33.39 105.18 32.67 101.89 34.59Z" fill="white"/>
<path d="M94.8801 87.2301L85.48 92.8501C85.23 93.0001 85.05 93.1601 85.05 93.4601V95.9201C85.05 96.2201 85.25 96.3501 85.5 96.2001L95.04 90.4001C95.29 90.2501 95.33 89.9801 95.33 89.6801V87.5101C95.33 87.2101 95.1301 87.0901 94.8801 87.2301Z" fill="#4FA847"/>
</g>
<defs>
<clipPath id="clip0_122_434">
<rect width="119.53" height="120" fill="white" transform="translate(0 0.5)"/>
</clipPath>
</defs>
</svg>
