<svg width="180" height="180" viewBox="0 0 180 180" fill="none" xmlns="http://www.w3.org/2000/svg">
<path d="M145.731 0.34668H34.2693C15.564 0.34668 0.347046 15.5636 0.347046 34.2689V145.73C0.347046 164.436 15.564 179.653 34.2693 179.653H145.731C164.436 179.653 179.653 164.436 179.653 145.73V34.2689C179.653 15.5636 164.436 0.34668 145.731 0.34668V0.34668ZM90 30.6351C104.72 30.6351 116.655 42.5679 116.655 57.2898C116.655 72.01 104.722 83.9446 90 83.9446C75.2798 83.9446 63.3453 72.0118 63.3453 57.2898C63.3453 42.5684 75.2798 30.6351 90 30.6351ZM140.885 150.577H39.1154V132.404C39.1154 116.348 52.1351 99.692 68.1936 99.692H111.809C127.866 99.692 140.885 116.345 140.885 132.404L140.885 150.577Z" fill="#CCCCCC"/>
</svg>
