<svg width="112" height="127" viewBox="0 0 112 127" fill="none" xmlns="http://www.w3.org/2000/svg">
<g clip-path="url(#clip0_122_282)">
<path d="M0.76001 1L10.815 113.883L55.933 126.463L101.177 113.837L111.24 1H0.76001ZM90.351 26.862L87.004 64.467L87.014 64.67L87 65.137V65.133L84.622 91.427L84.36 93.763L56 101.607V101.608L55.978 101.627L27.667 93.739L25.75 72H39.633L40.618 83.054L56.004 87.224L56 87.232V87.23L71.443 83.001L73.075 65H40.792L40.515 61.957L39.884 54.828L39.553 51H74.302L75.566 37H22.64L22.363 33.959L21.733 26.828L21.401 23H90.682L90.351 26.862V26.862Z" fill="#2689E4"/>
</g>
<defs>
<clipPath id="clip0_122_282">
<rect width="111" height="126" fill="white" transform="translate(0.5 0.5)"/>
</clipPath>
</defs>
</svg>
