<svg width="170" height="170" viewBox="0 0 170 170" fill="none" xmlns="http://www.w3.org/2000/svg">
<g clip-path="url(#clip0_54_463)">
<path d="M158.44 146.29H11.7327C5.54923 146.29 0.518326 141.254 0.518326 135.065V11.3772C0.518326 5.18924 5.54956 0.152344 11.7327 0.152344H158.44C164.623 0.152344 169.654 5.18827 169.654 11.3772V135.065C169.654 141.254 164.622 146.29 158.44 146.29ZM11.7327 5.4539C8.47064 5.4539 5.81558 8.11015 5.81558 11.3752V135.063C5.81558 138.328 8.46935 140.986 11.7327 140.986H158.44C161.702 140.986 164.357 138.329 164.357 135.063L164.356 11.3752C164.356 8.11015 161.702 5.4539 158.44 5.4539H11.7327Z" fill="#CCCCCC"/>
<path d="M167.028 120.802H3.1795C1.71565 120.802 0.530746 119.616 0.530746 118.151C0.530746 116.686 1.71565 115.5 3.1795 115.5H167.028C168.492 115.5 169.677 116.686 169.677 118.151C169.677 119.616 168.492 120.802 167.028 120.802Z" fill="#CCCCCC"/>
<path d="M114.712 169.848H55.4604C54.513 169.848 53.6372 169.34 53.166 168.52C52.6923 167.697 52.6949 166.684 53.1711 165.867L66.8507 142.296C67.3244 141.477 68.1964 140.976 69.1401 140.976H101.032C101.976 140.976 102.848 141.477 103.321 142.296L117.001 165.867C117.477 166.685 117.48 167.698 117.006 168.52C116.536 169.34 115.659 169.848 114.712 169.848H114.712ZM60.0635 164.545H110.112L99.5108 146.277H70.6661L60.0635 164.545Z" fill="#CCCCCC"/>
<path d="M124.066 169.848H46.1095C44.6456 169.848 43.4607 168.662 43.4607 167.197C43.4607 165.732 44.6456 164.546 46.1095 164.546H124.066C125.53 164.546 126.715 165.732 126.715 167.197C126.715 168.662 125.53 169.848 124.066 169.848Z" fill="#CCCCCC"/>
<path d="M72.0039 133.865C70.54 133.865 69.1792 132.503 69.1792 131.038C69.1792 129.573 70.5401 128.208 72.0039 128.208C73.4677 128.208 74.8285 129.573 74.8285 131.038C74.8285 132.503 73.4677 133.865 72.0039 133.865Z" fill="#CCCCCC"/>
<path d="M85.0861 133.865C83.6223 133.865 82.2615 132.503 82.2615 131.038C82.2615 129.573 83.6223 128.208 85.0861 128.208C86.55 128.208 87.9108 129.573 87.9108 131.038C87.9108 132.503 86.55 133.865 85.0861 133.865Z" fill="#CCCCCC"/>
<path d="M98.1685 133.865C96.7046 133.865 95.3438 132.503 95.3438 131.038C95.3438 129.573 96.7047 128.208 98.1685 128.208C99.6323 128.208 100.993 129.573 100.993 131.038C100.993 132.503 99.6323 133.865 98.1685 133.865Z" fill="#CCCCCC"/>
<path d="M75.806 57.9898C75.1024 57.9898 74.4301 57.7106 73.9325 57.2125L48.3762 31.6298C44.1746 27.3913 44.1781 20.5292 48.3762 16.3262C50.3552 14.3454 53.1083 13.1908 55.9329 13.1543C58.882 13.1908 61.5859 14.3277 63.6115 16.3551L89.1703 41.9353C90.2057 42.9679 90.2057 44.6469 89.1729 45.6821L77.6819 57.2102C77.1855 57.7095 76.5095 57.99 75.8084 57.99H75.8059L75.806 57.9898ZM55.933 18.4583C54.5458 18.4759 53.1309 19.067 52.1218 20.077C49.943 22.2578 49.9493 25.6876 52.1294 27.8886L75.8023 51.5862L83.5526 43.8123L59.8633 20.1034C58.8216 19.062 57.4256 18.4772 55.9328 18.4583L55.933 18.4583Z" fill="#CCCCCC"/>
<path d="M130.937 101.675C130.663 101.675 130.385 101.633 130.119 101.545L113.099 96.0087C112.701 95.8792 112.339 95.6566 112.044 95.361L85.4483 68.7406C84.4129 67.708 84.4129 66.029 85.4458 64.9938L96.9343 53.4683C97.4306 52.9689 98.1066 52.6885 98.8077 52.6885H98.8102C99.5139 52.6885 100.186 52.9677 100.684 53.4657L127.281 80.0875C127.576 80.383 127.798 80.7453 127.928 81.1439L133.459 98.2058C133.767 99.1541 133.515 100.194 132.812 100.898C132.305 101.403 131.628 101.674 130.937 101.674L130.937 101.675ZM115.341 91.1616L126.814 94.8932L123.084 83.3867L98.8128 59.0931L91.0651 66.8645L115.341 91.1616Z" fill="#CCCCCC"/>
<path d="M111.061 93.2744C110.384 93.2744 109.705 93.0153 109.188 92.4971C108.152 91.4608 108.152 89.783 109.188 88.7478L120.69 77.2348C121.725 76.1984 123.401 76.1984 124.436 77.2348C125.471 78.2711 125.471 79.9489 124.436 80.9841L112.933 92.4971C112.417 93.0153 111.74 93.2744 111.061 93.2744H111.061Z" fill="#CCCCCC"/>
<path d="M71.0711 85.7564C70.8197 85.7564 70.5697 85.7199 70.3209 85.6482C69.3924 85.374 68.6862 84.6118 68.4814 83.6623C68.2326 82.5077 67.7727 81.2978 67.1155 80.0704C65.227 76.5023 62.6195 74.69 59.1352 74.519C58.0873 74.4674 57.1688 73.8021 56.7918 72.8224C56.4161 71.8439 56.6523 70.7359 57.3924 69.9926L110.449 16.9126C112.467 14.8777 115.167 13.7483 118.047 13.7407H118.071C120.956 13.7407 123.666 14.8676 125.71 16.9126C127.716 18.9199 128.843 21.615 128.882 24.5015V24.5744C128.843 27.4621 127.714 30.1574 125.71 32.1632L72.9436 84.9823C72.4385 85.4842 71.7612 85.7558 71.0701 85.7558L71.0711 85.7564ZM64.4842 70.3987C67.0814 71.5432 69.7352 73.6902 71.7897 77.5764C71.9166 77.8091 72.0359 78.0455 72.149 78.2782L121.963 28.4148C122.964 27.4124 123.554 26.0012 123.582 24.5386C123.554 23.0759 122.964 21.6647 121.963 20.6624C120.921 19.6197 119.539 19.045 118.07 19.045H118.057C116.599 19.0475 115.23 19.6198 114.202 20.6561L64.4842 70.3987Z" fill="#CCCCCC"/>
<path d="M42.5872 108.471C41.5443 108.471 40.5843 107.894 40.1634 106.931C37.4857 100.832 36.3107 95.0745 36.6717 89.8148C37.1894 82.0473 42.1072 74.8632 49.2393 71.4223C49.3373 71.3582 49.4441 71.3003 49.5522 71.2487C52.3127 69.9621 55.2129 69.2779 58.1719 69.2163H59.2639C63.1313 69.4024 68.316 71.0035 71.79 77.575C72.6771 79.2276 73.3091 80.9054 73.6609 82.5465C74.5996 86.6503 73.9349 90.8173 71.7309 94.5637C71.6869 94.6417 71.6354 94.7159 71.5839 94.7888C71.5198 94.9008 71.447 95.0114 71.3665 95.1334C68.0707 100.33 61.8699 103.223 54.7629 102.868C46.4359 102.469 45.2071 106.346 45.1582 106.509C44.8478 107.581 43.8879 108.392 42.7758 108.464C42.7118 108.469 42.6502 108.471 42.5874 108.471L42.5872 108.471ZM52.0765 75.9267C51.9835 75.9858 51.8855 76.0387 51.7837 76.0877C46.2111 78.661 42.3572 84.1923 41.959 90.1739C41.7416 93.3483 42.2153 96.792 43.3688 100.459C45.5802 98.74 49.1688 97.3049 55.0306 97.5715C60.2024 97.8771 64.6353 95.8548 66.9172 92.2503C67.0027 92.0843 67.1057 91.9221 67.2276 91.7661C68.7027 89.2055 69.1262 86.4913 68.4879 83.6956C68.2316 82.5071 67.7717 81.2985 67.1145 80.0709C65.226 76.5028 62.6185 74.6905 59.1342 74.5195L58.2258 74.522C56.1588 74.5648 54.0769 75.0364 52.0764 75.9269L52.0765 75.9267ZM69.4479 93.2188H69.4743H69.4479Z" fill="#CCCCCC"/>
</g>
<defs>
<clipPath id="clip0_54_463">
<rect width="169.198" height="170" fill="white" transform="translate(0.5)"/>
</clipPath>
</defs>
</svg>
