<svg width="171" height="170" viewBox="0 0 171 170" fill="none" xmlns="http://www.w3.org/2000/svg">
<path d="M156.784 0.869141H14.2162C10.7144 0.869141 7.35727 2.25966 4.88136 4.73562C2.40546 7.21153 1.01488 10.5686 1.01488 14.0704V140.797C1.01488 144.297 2.40539 147.655 4.88136 150.13C7.35727 152.606 10.7144 153.997 14.2162 153.997C15.6735 153.997 16.8562 152.816 16.8562 151.357C16.8562 149.898 15.6735 148.717 14.2162 148.717C12.1146 148.717 10.1005 147.882 8.61529 146.397C7.13 144.911 6.29496 142.897 6.29496 140.797V14.0705C6.29496 11.969 7.13 9.95479 8.61529 8.46961C10.1006 6.98432 12.1146 6.14929 14.2162 6.14929H156.784C158.885 6.14929 160.9 6.98432 162.385 8.46961C163.87 9.95491 164.705 11.9689 164.705 14.0705V140.797C164.705 142.897 163.87 144.911 162.385 146.397C160.899 147.882 158.885 148.717 156.784 148.717C155.326 148.717 154.144 149.898 154.144 151.357C154.144 152.816 155.326 153.997 156.784 153.997C160.286 153.997 163.643 152.606 166.119 150.13C168.595 147.655 169.985 144.297 169.985 140.797V14.0704C169.985 10.5686 168.595 7.21153 166.119 4.73562C163.643 2.25972 160.286 0.869141 156.784 0.869141Z" fill="#CCCCCC"/>
<path d="M151.503 29.9116H19.4966C18.038 29.9116 16.8566 31.0943 16.8566 32.5528C16.8566 34.0102 18.038 35.1929 19.4966 35.1929H151.503C152.962 35.1929 154.143 34.0102 154.143 32.5528C154.143 31.0943 152.962 29.9116 151.503 29.9116Z" fill="#CCCCCC"/>
<path d="M19.4966 21.99H24.7766C26.2352 21.99 27.4167 20.8085 27.4167 19.35C27.4167 17.8914 26.2352 16.71 24.7766 16.71H19.4966C18.038 16.71 16.8566 17.8914 16.8566 19.35C16.8566 20.8085 18.038 21.99 19.4966 21.99Z" fill="#CCCCCC"/>
<path d="M40.6181 21.99C42.0767 21.99 43.2582 20.8085 43.2582 19.35C43.2582 17.8914 42.0767 16.71 40.6181 16.71H35.3381C33.8795 16.71 32.698 17.8914 32.698 19.35C32.698 20.8085 33.8795 21.99 35.3381 21.99H40.6181Z" fill="#CCCCCC"/>
<path d="M151.503 21.99C152.962 21.99 154.143 20.8085 154.143 19.35C154.143 17.8914 152.962 16.71 151.503 16.71H146.223C144.765 16.71 143.583 17.8914 143.583 19.35C143.583 20.8085 144.765 21.99 146.223 21.99H151.503Z" fill="#CCCCCC"/>
<path d="M37.211 62.3593L26.6499 51.7982C25.6155 50.7639 23.9369 50.7639 22.9013 51.7982C21.8657 52.8338 21.8657 54.5124 22.9013 55.548L31.6138 64.2338L22.9013 72.9195C22.4017 73.4154 22.1198 74.09 22.1198 74.795C22.1198 75.4987 22.4018 76.1733 22.9013 76.6692C23.3972 77.1688 24.0718 77.4495 24.7756 77.4495C25.4793 77.4495 26.1551 77.1688 26.6498 76.6692L37.2109 66.1081C37.7105 65.6122 37.9912 64.9376 37.9912 64.2339C37.9912 63.5301 37.7105 62.8555 37.2109 62.3596L37.211 62.3593Z" fill="#CCCCCC"/>
<path d="M61.7398 77.435C63.1983 77.435 64.3798 76.2524 64.3798 74.795C64.3798 73.3365 63.1983 72.1538 61.7398 72.1538H45.8986C44.4412 72.1538 43.2586 73.3365 43.2586 74.795C43.2586 76.2524 44.4412 77.435 45.8986 77.435H61.7398Z" fill="#CCCCCC"/>
<path d="M135.662 93.2731H98.6994C97.2408 93.2731 96.0582 94.4558 96.0582 95.9131C96.0582 97.3717 97.2408 98.5543 98.6994 98.5543H135.662C136.362 98.5543 137.034 98.8315 137.529 99.3274C138.025 99.8221 138.302 100.494 138.302 101.194V161.917C138.302 162.617 138.025 163.288 137.529 163.783C137.034 164.279 136.362 164.557 135.662 164.557H35.3378C33.8792 164.557 32.6978 163.375 32.6978 161.917V101.194C32.6978 99.7358 33.8792 98.5543 35.3378 98.5543H85.5C86.2001 98.5543 86.8723 98.276 87.3669 97.7801C87.8616 97.2854 88.14 96.6144 88.14 95.9131V74.7931C88.14 73.3345 86.9585 72.1519 85.5 72.1519C84.0414 72.1519 82.86 73.3345 82.86 74.7931V93.2745L35.3364 93.2733C33.2348 93.2733 31.2207 94.1083 29.7355 95.5936C28.2502 97.0789 27.4152 99.0929 27.4152 101.194V161.917C27.4152 164.018 28.2502 166.032 29.7355 167.517C31.2208 169.002 33.2348 169.837 35.3364 169.837H135.661C137.762 169.837 139.777 169.002 141.262 167.517C142.747 166.032 143.582 164.018 143.582 161.917V101.194C143.582 99.0929 142.747 97.0788 141.262 95.5936C139.776 94.1083 137.762 93.2733 135.661 93.2733L135.662 93.2731Z" fill="#CCCCCC"/>
<path d="M48.5372 117.036H59.0983C60.5557 117.036 61.7383 115.855 61.7383 114.396C61.7383 112.939 60.5557 111.756 59.0983 111.756H48.5372C47.0799 111.756 45.8972 112.939 45.8972 114.396C45.8972 115.855 47.0799 117.036 48.5372 117.036Z" fill="#CCCCCC"/>
<path d="M69.6588 117.036H80.2199C81.6773 117.036 82.8599 115.855 82.8599 114.396C82.8599 112.939 81.6773 111.756 80.2199 111.756H69.6588C68.2014 111.756 67.0188 112.939 67.0188 114.396C67.0188 115.855 68.2014 117.036 69.6588 117.036Z" fill="#CCCCCC"/>
<path d="M101.341 111.756H90.7801C89.3227 111.756 88.14 112.939 88.14 114.396C88.14 115.854 89.3227 117.036 90.7801 117.036H101.341C102.799 117.036 103.981 115.854 103.981 114.396C103.981 112.939 102.799 111.756 101.341 111.756Z" fill="#CCCCCC"/>
<path d="M111.902 117.036H122.463C123.92 117.036 125.103 115.855 125.103 114.396C125.103 112.939 123.92 111.756 122.463 111.756H111.902C110.445 111.756 109.262 112.939 109.262 114.396C109.262 115.855 110.445 117.036 111.902 117.036Z" fill="#CCCCCC"/>
<path d="M61.7397 130.236C61.7397 129.536 61.4614 128.863 60.9667 128.369C60.4708 127.874 59.7998 127.596 59.0997 127.596H48.5386C47.0813 127.596 45.8986 128.777 45.8986 130.236C45.8986 131.694 47.0813 132.876 48.5386 132.876H59.0997C59.7998 132.876 60.4708 132.597 60.9667 132.103C61.4614 131.608 61.7397 130.936 61.7397 130.236Z" fill="#CCCCCC"/>
<path d="M43.2568 146.077C41.7983 146.077 40.6168 147.259 40.6168 148.717C40.6168 150.176 41.7983 151.357 43.2568 151.357H51.1768C52.6354 151.357 53.818 150.176 53.818 148.717C53.818 147.259 52.6354 146.077 51.1768 146.077H43.2568Z" fill="#CCCCCC"/>
<path d="M117.182 148.719C117.182 149.419 117.461 150.09 117.957 150.586C118.451 151.081 119.122 151.359 119.824 151.359H127.744C129.202 151.359 130.384 150.178 130.384 148.719C130.384 147.261 129.202 146.079 127.744 146.079H119.824C118.365 146.079 117.182 147.261 117.182 148.719Z" fill="#CCCCCC"/>
<path d="M69.6588 132.878H80.2199C81.6773 132.878 82.8599 131.696 82.8599 130.238C82.8599 128.779 81.6773 127.598 80.2199 127.598H69.6588C68.2014 127.598 67.0188 128.779 67.0188 130.238C67.0188 131.696 68.2014 132.878 69.6588 132.878Z" fill="#CCCCCC"/>
<path d="M101.341 132.878C102.799 132.878 103.981 131.696 103.981 130.238C103.981 128.779 102.799 127.598 101.341 127.598H90.7801C89.3227 127.598 88.14 128.779 88.14 130.238C88.14 131.696 89.3227 132.878 90.7801 132.878H101.341Z" fill="#CCCCCC"/>
<path d="M111.902 132.878H122.463C123.92 132.878 125.103 131.696 125.103 130.238C125.103 128.779 123.92 127.598 122.463 127.598H111.902C110.445 127.598 109.262 128.779 109.262 130.238C109.262 131.696 110.445 132.878 111.902 132.878Z" fill="#CCCCCC"/>
<path d="M64.3784 151.358H106.622C108.08 151.358 109.262 150.176 109.262 148.718C109.262 147.259 108.08 146.078 106.622 146.078H64.3784C62.9198 146.078 61.7384 147.259 61.7384 148.718C61.7384 150.176 62.9198 151.358 64.3784 151.358Z" fill="#CCCCCC"/>
</svg>
