<svg width="38" height="38" viewBox="0 0 38 38" fill="none" xmlns="http://www.w3.org/2000/svg">
<path d="M5.54324 18.354C5.43983 18.2533 5.35763 18.1329 5.30151 17.9999C5.24538 17.8669 5.21647 17.7241 5.21647 17.5797C5.21647 17.4354 5.24538 17.2925 5.30151 17.1595C5.35763 17.0265 5.43983 16.9062 5.54324 16.8055C5.75522 16.599 6.03942 16.4835 6.33531 16.4835C6.6312 16.4835 6.9154 16.599 7.12737 16.8055L18.9976 28.3788L30.8702 16.8055C30.9769 16.7013 31.103 16.6191 31.2415 16.5637C31.3799 16.5083 31.5278 16.4807 31.6769 16.4824C31.826 16.4842 31.9733 16.5153 32.1104 16.574C32.2474 16.6327 32.3716 16.7178 32.4757 16.8245C32.575 16.9261 32.6533 17.0463 32.7061 17.1782C32.7589 17.3101 32.7852 17.4511 32.7834 17.5932C32.7817 17.7352 32.7519 17.8755 32.6958 18.0061C32.6398 18.1366 32.5585 18.2549 32.4567 18.354L19.8265 30.6612C19.6047 30.8774 19.3073 30.9984 18.9976 30.9984C18.6879 30.9984 18.3905 30.8774 18.1687 30.6612L5.54324 18.354ZM5.54324 8.85397C5.43983 8.75328 5.35763 8.63289 5.30151 8.49991C5.24538 8.36693 5.21647 8.22406 5.21647 8.07972C5.21647 7.93538 5.24538 7.79251 5.30151 7.65953C5.35763 7.52655 5.43983 7.40616 5.54324 7.30547C5.75522 7.09903 6.03942 6.9835 6.33531 6.9835C6.6312 6.9835 6.9154 7.09903 7.12737 7.30547L18.9976 18.8788L30.8702 7.30547C30.9769 7.20129 31.103 7.11914 31.2415 7.06371C31.3799 7.00828 31.5278 6.98066 31.6769 6.98242C31.826 6.98419 31.9733 7.0153 32.1104 7.07399C32.2474 7.13268 32.3716 7.21779 32.4757 7.32447C32.575 7.42608 32.6533 7.54628 32.7061 7.67818C32.7589 7.81008 32.7852 7.95109 32.7834 8.09316C32.7817 8.23522 32.7519 8.37554 32.6958 8.50609C32.6398 8.63664 32.5585 8.75485 32.4567 8.85397L19.8265 21.1612C19.6047 21.3774 19.3073 21.4984 18.9976 21.4984C18.6879 21.4984 18.3905 21.3774 18.1687 21.1612L5.54324 8.85397Z" fill="#CCCCCC"/>
</svg>
