<svg width="103" height="110" viewBox="0 0 103 110" fill="none" xmlns="http://www.w3.org/2000/svg">
<g clip-path="url(#clip0_122_444)">
<path d="M36.8199 23.66C22.4499 21.04 11.0999 23.78 6.56992 31.66C3.18992 37.51 4.15992 45.27 8.90992 53.56C9.00645 53.7281 9.13513 53.8756 9.28863 53.9939C9.44213 54.1123 9.61744 54.1992 9.80455 54.2498C9.99166 54.3005 10.1869 54.3137 10.3791 54.2889C10.5714 54.264 10.7568 54.2015 10.9249 54.105C11.093 54.0085 11.2405 53.8798 11.3588 53.7263C11.4772 53.5728 11.5641 53.3975 11.6147 53.2104C11.6654 53.0233 11.6786 52.828 11.6538 52.6358C11.6289 52.4436 11.5664 52.2581 11.4699 52.09C7.18992 44.62 6.34993 37.92 9.11993 33.09C12.8799 26.58 23.0099 24.09 36.2899 26.55C36.6745 26.6203 37.0712 26.5349 37.3928 26.3127C37.7145 26.0905 37.9346 25.7496 38.0049 25.365C38.0752 24.9805 37.9898 24.5837 37.7676 24.2621C37.5454 23.9405 37.2045 23.7203 36.8199 23.65V23.66ZM16.3799 63.61C22.7873 70.4768 30.2062 76.3243 38.3799 80.95C59.2199 92.95 81.3799 96.2 92.3799 88.74C92.7022 88.5199 92.9238 88.1808 92.996 87.7973C93.0682 87.4138 92.9851 87.0173 92.7649 86.695C92.5448 86.3728 92.2057 86.1512 91.8222 86.079C91.4386 86.0068 91.0422 86.0899 90.7199 86.31C80.8599 93 59.7499 89.92 39.8199 78.39C31.9218 73.9136 24.7526 68.2586 18.5599 61.62C18.2947 61.3309 17.9255 61.1591 17.5336 61.1422C17.1416 61.1253 16.759 61.2648 16.4699 61.53C16.1808 61.7952 16.0089 62.1644 15.9921 62.5564C15.9752 62.9483 16.1147 63.3309 16.3799 63.62V63.61Z" fill="#47848F"/>
<path d="M88.8101 61.81C98.2201 50.7 101.5 39.52 96.9801 31.7C93.6601 25.94 86.6301 22.9 77.2901 22.78C76.8989 22.78 76.5237 22.9354 76.2471 23.212C75.9705 23.4887 75.8151 23.8638 75.8151 24.255C75.8151 24.6462 75.9705 25.0214 76.2471 25.298C76.5237 25.5746 76.8989 25.73 77.2901 25.73C85.6901 25.84 91.7401 28.46 94.4701 33.18C98.2201 39.68 95.2901 49.65 86.6001 59.92C86.4753 60.0678 86.3809 60.2386 86.3222 60.4229C86.2634 60.6071 86.2416 60.8011 86.2578 60.9938C86.2741 61.1865 86.3281 61.374 86.4169 61.5458C86.5056 61.7176 86.6273 61.8703 86.7751 61.995C86.9228 62.1198 87.0937 62.2142 87.2779 62.2729C87.4621 62.3317 87.6561 62.3535 87.8488 62.3373C88.0415 62.321 88.2291 62.267 88.4009 62.1782C88.5727 62.0895 88.7253 61.9678 88.8501 61.82L88.8101 61.81ZM64.6401 24.15C55.4071 26.2453 46.5528 29.7533 38.3901 34.55C16.8801 47 2.84007 65.29 4.75007 78.57C4.7783 78.767 4.84506 78.9565 4.94652 79.1277C5.04799 79.2989 5.18218 79.4484 5.34143 79.5677C5.50069 79.687 5.68188 79.7738 5.87468 79.8231C6.06747 79.8724 6.26808 79.8833 6.46507 79.855C6.66205 79.8268 6.85154 79.76 7.02273 79.6586C7.19391 79.5571 7.34343 79.4229 7.46275 79.2637C7.58208 79.1044 7.66886 78.9232 7.71816 78.7304C7.76746 78.5376 7.7783 78.337 7.75007 78.14C5.98007 66.35 19.2801 49 39.8601 37.11C47.756 32.453 56.3236 29.0429 65.2601 27C65.4492 26.9593 65.6284 26.8818 65.7875 26.7718C65.9467 26.6618 66.0826 26.5216 66.1875 26.3591C66.2924 26.1966 66.3643 26.015 66.3991 25.8247C66.4338 25.6344 66.4308 25.4391 66.3901 25.25C66.3494 25.0609 66.2718 24.8817 66.1618 24.7226C66.0518 24.5634 65.9116 24.4275 65.7491 24.3226C65.5866 24.2177 65.405 24.1458 65.2147 24.111C65.0244 24.0763 64.8292 24.0793 64.6401 24.12V24.15Z" fill="#47848F"/>
<path d="M29.75 87.7801C34.75 101.51 42.75 110 51.8 110C58.4 110 64.5 105.5 69.26 97.5801C69.4696 97.2472 69.5383 96.8448 69.4511 96.4613C69.3639 96.0778 69.1279 95.7446 68.795 95.5351C68.4622 95.3256 68.0597 95.2568 67.6762 95.344C67.2927 95.4312 66.9596 95.6672 66.75 96.0001C62.47 103.12 57.22 107 51.81 107C44.29 107 37.12 99.4601 32.57 86.7601C32.4374 86.3928 32.1643 86.0931 31.8108 85.9272C31.4573 85.7612 31.0524 85.7425 30.685 85.8751C30.3177 86.0077 30.0181 86.2808 29.8521 86.6343C29.6862 86.9878 29.6674 87.3928 29.8 87.7601L29.75 87.7801ZM74.75 85.0901C77.4102 76.2366 78.7282 67.0343 78.66 57.7901C78.66 33.3801 70.12 12.3501 57.95 6.94007C57.7728 6.86128 57.5817 6.81818 57.3877 6.81323C57.1938 6.80827 57.0008 6.84157 56.8197 6.91121C56.6386 6.98086 56.4731 7.08549 56.3324 7.21912C56.1918 7.35276 56.0788 7.51279 56 7.69007C55.8409 8.04812 55.8305 8.45471 55.9712 8.8204C56.1118 9.1861 56.392 9.48094 56.75 9.64007C67.6 14.4601 75.75 34.4201 75.75 57.7901C75.8165 66.7361 74.5424 75.6416 71.97 84.2101C71.9123 84.3946 71.8914 84.5887 71.9086 84.7812C71.9258 84.9738 71.9808 85.1611 72.0704 85.3324C72.16 85.5038 72.2825 85.6558 72.4309 85.7797C72.5792 85.9037 72.7505 85.9973 72.935 86.0551C73.1195 86.1129 73.3136 86.1337 73.5062 86.1165C73.6988 86.0993 73.8861 86.0443 74.0574 85.9547C74.2287 85.8651 74.3807 85.7426 74.5047 85.5943C74.6287 85.4459 74.7223 85.2746 74.78 85.0901H74.75ZM102.46 83.6501C102.46 82.2557 102.047 80.8927 101.272 79.7333C100.497 78.5739 99.3962 77.6703 98.108 77.1367C96.8197 76.6031 95.4022 76.4635 94.0347 76.7355C92.6671 77.0076 91.4109 77.679 90.4249 78.665C89.439 79.6509 88.7675 80.9071 88.4955 82.2747C88.2235 83.6423 88.3631 85.0598 88.8967 86.348C89.4303 87.6362 90.3339 88.7373 91.4933 89.5119C92.6526 90.2866 94.0157 90.7001 95.41 90.7001C96.3359 90.7001 97.2526 90.5177 98.108 90.1634C98.9633 89.8091 99.7405 89.2898 100.395 88.6352C101.05 87.9805 101.569 87.2033 101.923 86.348C102.278 85.4926 102.46 84.5759 102.46 83.6501V83.6501ZM99.51 83.6501C99.51 84.461 99.2696 85.2537 98.8191 85.9279C98.3685 86.6022 97.7282 87.1277 96.979 87.438C96.2299 87.7483 95.4055 87.8295 94.6102 87.6713C93.8148 87.5131 93.0843 87.1226 92.5109 86.5492C91.9375 85.9758 91.547 85.2453 91.3888 84.4499C91.2306 83.6546 91.3118 82.8303 91.6221 82.0811C91.9325 81.3319 92.458 80.6916 93.1322 80.2411C93.8064 79.7905 94.5991 79.5501 95.41 79.5501C96.4974 79.5501 97.5403 79.982 98.3092 80.7509C99.0781 81.5198 99.51 82.5627 99.51 83.6501V83.6501ZM8.09004 90.7001C9.4844 90.7001 10.8474 90.2866 12.0068 89.5119C13.1662 88.7373 14.0698 87.6362 14.6034 86.348C15.137 85.0598 15.2766 83.6423 15.0046 82.2747C14.7325 80.9071 14.0611 79.6509 13.0751 78.665C12.0892 77.679 10.833 77.0076 9.46543 76.7355C8.09786 76.4635 6.68034 76.6031 5.39212 77.1367C4.1039 77.6703 3.00284 78.5739 2.22818 79.7333C1.45351 80.8927 1.04004 82.2557 1.04004 83.6501C1.04004 85.5199 1.78281 87.313 3.10494 88.6352C4.42707 89.9573 6.22026 90.7001 8.09004 90.7001V90.7001ZM8.09004 87.7501C7.27914 87.7501 6.48644 87.5096 5.8122 87.0591C5.13796 86.6086 4.61245 85.9683 4.30213 85.2191C3.99181 84.4699 3.91062 83.6455 4.06882 82.8502C4.22702 82.0549 4.61751 81.3243 5.1909 80.7509C5.7643 80.1775 6.49485 79.7871 7.29017 79.6289C8.08549 79.4707 8.90986 79.5518 9.65904 79.8622C10.4082 80.1725 11.0486 80.698 11.4991 81.3722C11.9496 82.0465 12.19 82.8392 12.19 83.6501C12.19 84.7375 11.7581 85.7803 10.9892 86.5492C10.2203 87.3181 9.17743 87.7501 8.09004 87.7501V87.7501Z" fill="#47848F"/>
<path d="M51.8 14.13C53.1944 14.13 54.5574 13.7166 55.7168 12.9419C56.8761 12.1672 57.7798 11.0662 58.3134 9.77795C58.847 8.48973 58.9866 7.07221 58.7145 5.70465C58.4425 4.33708 57.7711 3.08089 56.7851 2.09493C55.7991 1.10897 54.543 0.437522 53.1754 0.165496C51.8078 -0.10653 50.3903 0.0330843 49.1021 0.566682C47.8139 1.10028 46.7128 2.0039 45.9381 3.16326C45.1635 4.32263 44.75 5.68567 44.75 7.08003C44.75 8.94981 45.4928 10.743 46.8149 12.0651C48.137 13.3873 49.9302 14.13 51.8 14.13V14.13ZM51.8 11.18C50.9891 11.18 50.1964 10.9396 49.5222 10.4891C48.8479 10.0385 48.3224 9.39821 48.0121 8.64903C47.7018 7.89986 47.6206 7.07548 47.7788 6.28016C47.937 5.48484 48.3275 4.75429 48.9009 4.1809C49.4743 3.6075 50.2048 3.21701 51.0001 3.05881C51.7955 2.90061 52.6198 2.98181 53.369 3.29213C54.1182 3.60245 54.7585 4.12795 55.209 4.8022C55.6595 5.47644 55.9 6.26913 55.9 7.08003C55.9 8.16742 55.468 9.21027 54.6991 9.97917C53.9302 10.7481 52.8874 11.18 51.8 11.18V11.18ZM52.88 62.77C51.8944 62.9906 50.8654 62.9135 49.9236 62.5486C48.9818 62.1836 48.1696 61.5473 47.5899 60.7202C47.0103 59.8931 46.6892 58.9125 46.6675 57.9027C46.6458 56.8929 46.9244 55.8994 47.468 55.0482C48.0117 54.1969 48.7958 53.5263 49.721 53.1212C50.6463 52.7161 51.671 52.5949 52.6652 52.7729C53.6594 52.9509 54.5783 53.4202 55.3056 54.1211C56.0328 54.822 56.5355 55.7231 56.75 56.71C57.0361 58.0265 56.7897 59.4027 56.0646 60.5381C55.3395 61.6735 54.1947 62.4759 52.88 62.77V62.77Z" fill="#47848F"/>
</g>
<defs>
<clipPath id="clip0_122_444">
<rect width="102" height="110" fill="white" transform="translate(0.5)"/>
</clipPath>
</defs>
</svg>
