<svg width="167" height="47" viewBox="0 0 167 47" fill="none" xmlns="http://www.w3.org/2000/svg">
<path d="M51.8912 46.6981V1.24234H53.8709V8.39305C54.1048 8.07628 54.3208 7.73977 54.5174 7.38591C55.3264 5.29293 56.5973 3.53073 58.1811 2.30586C59.765 1.081 61.5961 0.444227 63.46 0.470192C67.9717 0.302335 71.6349 2.38377 73.7897 7.38591C75.1608 10.4933 75.9154 13.9646 75.9903 17.5096C76.0653 21.0547 75.4585 24.5706 74.2207 27.7638C72.214 33.3702 67.2579 36.1566 61.9516 35.1327C60.3003 34.9574 58.7105 34.2696 57.3273 33.1319C55.944 31.9943 54.8114 30.4431 54.0326 28.6198V46.6981H51.8912ZM53.8709 17.3231C54.046 19.5388 54.1134 21.1166 54.3154 22.6609C55.0965 28.7373 57.9786 32.3463 62.5038 33.0009C64.6285 33.4362 66.8087 32.9397 68.6726 31.596C70.5366 30.2523 71.969 28.1445 72.7258 25.632C73.5954 23.0476 74.0139 20.2622 73.9535 17.4607C73.8931 14.6593 73.3553 11.9059 72.3756 9.38341C71.5678 7.13143 70.1941 5.26819 68.4618 4.0751C66.7295 2.88201 64.7327 2.42386 62.7731 2.76984C60.9333 2.93598 59.1807 3.81252 57.759 5.27758C56.3373 6.74264 55.3173 8.72341 54.8406 10.9445C54.4188 13.0455 54.095 15.1753 53.8709 17.3231V17.3231ZM116.375 23.5002C116.075 26.7006 114.852 29.6563 112.935 31.8176C111.018 33.9789 108.536 35.1987 105.951 35.2502C97.6546 35.7706 93.7624 28.9052 93.1429 20.9823C92.7129 16.6798 93.2734 12.3136 94.759 8.39305C95.7936 5.70381 97.488 3.49466 99.5968 2.08538C101.706 0.676105 104.12 0.139811 106.489 0.554126C108.742 0.792109 110.878 1.90739 112.594 3.74203C114.31 5.57668 115.52 8.0377 116.052 10.7766C116.473 13.2711 116.783 15.7929 116.981 18.3302H95.1765C94.7725 25.5145 97.8701 31.2888 102.261 32.682C107.728 34.3606 112.402 31.4063 114.099 24.927C114.476 23.2652 115.163 23.0302 116.375 23.5002V23.5002ZM95.1765 16.0305H114.664C114.543 8.37626 110.718 2.83698 105.533 2.75305C99.6613 2.63555 95.4324 7.97341 95.1765 16.0305ZM120.388 23.668H122.301C122.371 25.4219 122.828 27.1176 123.622 28.5687C124.416 30.0197 125.515 31.17 126.799 31.8931C128.411 32.7974 130.166 33.2368 131.934 33.1787C133.701 33.1206 135.435 32.5664 137.007 31.5573C137.864 31.076 138.581 30.2788 139.063 29.2733C139.545 28.2678 139.767 27.1023 139.701 25.9341C139.75 24.8075 139.503 23.6915 138.998 22.7555C138.492 21.8195 137.756 21.1145 136.9 20.7473C134.799 19.7738 132.563 19.2366 130.422 18.3806C128.194 17.5897 126.015 16.5967 123.903 15.4095C120.455 13.3113 120.24 5.13662 124.146 2.55162C126.145 1.14504 128.396 0.385084 130.692 0.341103C132.988 0.297122 135.257 0.970515 137.29 2.29984C138.522 3.1484 139.517 4.44484 140.143 6.01632C140.768 7.58779 140.995 9.35961 140.792 11.0956H139.149C139.149 10.9948 139.001 10.9109 139.001 10.8102C138.799 4.28055 134.408 2.26626 129.694 2.83698C128.287 3.05331 126.92 3.57003 125.654 4.36448C124.893 4.79815 124.259 5.51551 123.839 6.41753C123.42 7.31955 123.235 8.36172 123.311 9.40019C123.313 10.4391 123.573 11.4517 124.055 12.2992C124.538 13.1466 125.218 13.7875 126.004 14.1338C128.078 15.0738 130.247 15.678 132.374 16.4166C134.085 17.0041 135.863 17.3902 137.519 18.0952C138.688 18.5729 139.714 19.4819 140.459 20.7018C141.205 21.9218 141.635 23.3952 141.694 24.927C141.894 26.6053 141.665 28.3195 141.038 29.8261C140.412 31.3327 139.421 32.5551 138.206 33.3198C133.708 36.4923 126.3 35.6531 123.001 31.6413C122.165 30.593 121.503 29.3488 121.055 27.9803C120.606 26.6118 120.38 25.1462 120.388 23.668ZM165.936 11.0956H164.145C164.145 10.7934 164.051 10.5248 164.024 10.2731C163.995 8.59961 163.505 6.98942 162.637 5.7121C161.769 4.43479 160.576 3.56791 159.256 3.25662C156.766 2.36628 154.11 2.5256 151.701 3.70984C150.748 4.05022 149.91 4.76539 149.31 5.7486C148.711 6.7318 148.382 7.9303 148.374 9.16519C148.341 10.378 148.644 11.568 149.233 12.5343C149.822 13.5007 150.66 14.1842 151.606 14.4695C154.3 15.5102 157.061 16.1481 159.795 17.0881C160.681 17.3531 161.553 17.6838 162.407 18.0784C163.683 18.6473 164.792 19.6826 165.588 21.049C166.384 22.4154 166.831 24.0494 166.87 25.7374C166.909 27.4254 166.539 29.089 165.808 30.5106C165.077 31.9322 164.018 33.0458 162.771 33.7059C160.871 34.7816 158.811 35.3506 156.723 35.3766C154.636 35.4026 152.568 34.885 150.65 33.857C149.073 33.0094 147.743 31.58 146.837 29.7614C145.932 27.9428 145.495 25.8221 145.586 23.6848H147.337C147.661 25.6325 148.361 27.4523 149.376 28.9869C150.392 30.5214 151.692 31.7243 153.164 32.4914C154.637 33.2585 156.237 33.5667 157.826 33.3893C159.416 33.212 160.947 32.5543 162.286 31.4734C163.102 30.945 163.78 30.136 164.238 29.1422C164.696 28.1485 164.916 27.0118 164.872 25.867C164.913 24.7397 164.657 23.6266 164.144 22.6967C163.632 21.7667 162.889 21.0705 162.03 20.7138C159.929 19.7402 157.694 19.2198 155.552 18.3638C153.312 17.5852 151.12 16.6034 148.994 15.4263C145.627 13.3616 145.357 5.25412 149.196 2.66912C151.22 1.20361 153.515 0.416368 155.856 0.384011C158.197 0.351654 160.505 1.07529 162.556 2.48448C163.728 3.3569 164.672 4.63532 165.272 6.16415C165.872 7.69299 166.103 9.4063 165.936 11.0956V11.0956ZM48.6185 34.4277C47.9134 34.7605 47.1349 34.7598 46.4301 34.4258C45.7254 34.0917 45.1432 33.4475 44.7937 32.6148C42.5984 28.5191 40.1742 24.608 37.8443 20.613L36.8342 18.9345C34.0599 23.5673 31.2855 28.0156 28.7536 32.6316C28.4237 33.4274 27.873 34.0466 27.204 34.374C26.5351 34.7013 25.7935 34.7144 25.1173 34.4109L35.5279 17.0041L25.8446 1.27591C26.5416 0.962215 27.3041 0.957914 28.0034 1.26373C28.7027 1.56954 29.2959 2.16673 29.6829 2.95448C31.932 7.05019 34.4235 10.9613 36.9016 15.1073C39.3931 10.9948 41.8577 7.06698 44.1607 3.00484C44.4924 2.22197 45.0434 1.61838 45.7089 1.30888C46.3744 0.999383 47.108 1.00557 47.7701 1.32627L44.0126 7.53698C42.3291 10.3066 40.6726 13.0931 38.9217 15.7956C38.7807 15.953 38.6678 16.1457 38.5906 16.3612C38.5133 16.5767 38.4734 16.8101 38.4734 17.0461C38.4734 17.2821 38.5133 17.5155 38.5906 17.7309C38.6678 17.9464 38.7807 18.1392 38.9217 18.2966C42.1405 23.6177 45.3324 28.9556 48.6185 34.4277V34.4277ZM92.8197 1.10805V3.45805C91.4575 3.3467 90.0918 3.59257 88.8106 4.17978C87.5294 4.767 86.3612 5.68251 85.3815 6.86724C84.4018 8.05196 83.6322 9.47956 83.1226 11.0579C82.6129 12.6362 82.3744 14.3302 82.4226 16.0305V34.4948H80.4967V1.24234H82.3822V8.05734C84.7121 3.08876 88.308 1.24234 92.8197 1.10805V1.10805ZM0.175049 16.7859C0.457871 15.1073 0.632952 13.2777 1.02352 11.5656C3.35344 1.24234 12.8482 -3.0548 19.38 3.34055C23.2049 7.08377 24.1611 12.388 23.9725 18.3638H2.42416C2.074 29.0395 8.25569 35.4852 16.1613 32.1952C17.4437 31.6235 18.5916 30.6627 19.5016 29.3997C20.4115 28.1366 21.0548 26.611 21.3733 24.9606C21.7908 23.282 22.4642 22.9966 23.7436 23.4834C23.5329 25.5269 22.9531 27.4843 22.0481 29.2084C21.143 30.9324 19.9361 32.3783 18.5181 33.4373C16.1753 35.0341 13.4873 35.6667 10.8386 35.2447C8.18989 34.8226 5.71608 33.3674 3.77094 31.0873C1.84661 28.3906 0.683058 24.9832 0.457871 21.3852C0.457871 20.8145 0.282791 20.2438 0.188517 19.7066C0.179538 18.7107 0.175049 17.7371 0.175049 16.7859V16.7859ZM2.4511 16.0641H21.9389C21.8177 8.32591 17.8986 2.83698 12.6731 2.78662C6.85505 2.68591 2.69352 8.05734 2.43763 16.0305L2.4511 16.0641Z" fill="#CCCCCC"/>
</svg>
