<svg width="113" height="100" viewBox="0 0 113 100" fill="none" xmlns="http://www.w3.org/2000/svg">
<g clip-path="url(#clip0_122_456)">
<path d="M34.0574 88.63C29.8274 85.3 25.3174 82.11 22.2274 77.62C15.7374 69.7 10.7374 60.52 7.32737 50.88C5.25737 44.61 4.55737 37.89 1.88737 31.86C-0.892627 27.48 2.36737 22.7 7.15737 21.31C9.28737 20.9 13.0474 18.88 8.51737 20.33C4.45737 23.31 4.06737 17.62 8.22737 17.26C11.0674 16.88 12.1174 14.56 11.1474 12.46C8.09737 10.47 18.5474 8.28004 13.2874 5.31004C7.80737 -0.599963 20.9474 -1.73996 17.7074 4.98004C16.9374 10.14 26.8874 4.03004 24.5774 9.99004C26.9274 12.85 33.3774 10.64 33.2074 14.66C36.6274 14.9 37.8074 17.77 41.0074 17.99C44.3374 19.49 50.3674 20.68 51.4974 24.43C48.1974 27.04 40.5474 19.03 40.1874 26.27C41.1874 36.96 40.9274 47.97 44.8374 58.15C46.6874 64.31 51.1674 69.16 55.2174 73.96C59.0974 78.66 64.3374 81.97 69.6974 84.76C74.3874 86.97 79.4474 88.44 84.5674 89.36C86.6374 87.77 90.3074 81.88 93.5374 84.36C93.6974 87.16 87.1174 90.2 93.2274 89.9C96.8174 88.82 99.3074 92.67 102.267 89.19C104.987 92.42 113.587 87.13 111.647 93.72C109.027 95.41 105.207 94.39 102.577 96.72C98.2474 94.56 94.8074 98.65 90.0174 98.14C84.6974 99.09 79.2874 99.48 73.8874 99.48C65.0374 98.78 55.9974 98.49 47.5874 95.41C42.8474 94.03 38.2174 91.33 34.0574 88.63V88.63ZM41.5274 91.87C46.1574 93.87 50.6874 95.98 55.7574 96.62C63.8074 97.74 72.1274 99.46 80.2074 97.89C76.5474 96.24 72.7674 98.53 69.1274 96.71C64.7574 97.65 60.0674 96.47 55.6274 95.89C50.5774 93.64 45.1274 92.09 40.3974 89.17C34.4874 87.01 43.4574 91.94 45.0474 92.34C48.7374 94.44 40.9874 91.26 39.8874 90.39C36.7974 88.65 36.3974 89.02 39.5774 90.78C40.2174 91.15 40.8574 91.55 41.5274 91.87ZM32.7174 85.64C37.2074 87.3 32.6974 82.48 30.6474 82.76C29.7374 81.18 27.1674 80.18 28.9774 79.33C25.7174 80.46 25.5574 75.03 24.0274 75.8C20.5774 74.71 22.6874 70.85 18.5774 68.48C18.2074 65.98 14.4974 63.82 13.3174 60.05C12.7974 58.12 9.12737 52.59 11.3774 57.74C13.2974 62.7 16.6674 66.95 19.4774 71.19C21.6574 75.23 24.2374 79.45 28.1974 81.97C29.5374 83.27 30.8274 85.24 32.7174 85.64V85.64ZM19.7874 71.45C19.9474 70.77 20.6074 72.91 19.7874 71.45V71.45ZM38.0874 87.63C39.0874 87.19 36.6574 87.07 38.0874 87.63V87.63ZM40.5274 88.52C40.2774 87.29 39.4174 89.21 40.5274 88.52V88.52ZM43.5774 89.79C45.0274 88.41 41.3374 88.92 43.5774 89.79V89.79ZM48.7974 92.7C49.6874 91.4 45.9774 92.21 48.7974 92.7V92.7ZM38.7674 85.71C41.0174 84.25 35.8574 85.69 38.7674 85.71V85.71ZM41.0574 86.85C40.9874 86.08 40.2374 87.19 41.0574 86.85V86.85ZM52.4874 93.98C54.3274 95.14 63.2174 96.52 57.6474 94.46C56.7174 94.66 47.3174 91.8 52.4874 93.98ZM34.3374 79.85C34.1574 79.08 31.4874 79 34.3374 79.85V79.85ZM39.6574 82.95C41.0474 81.99 36.7874 82.21 39.6574 82.95V82.95ZM44.1374 85.7C46.1174 84.95 40.9074 84.95 44.1374 85.7V85.7ZM32.1674 77.49C34.3274 79.14 40.8674 77.7 35.4674 76.5C33.0174 75.19 27.4774 74.3 31.2474 77.29L32.1674 77.49V77.49ZM47.1674 86.65C48.0674 85.12 43.3974 85.77 47.1674 86.65V86.65ZM42.6074 83.02C47.8774 84.51 38.1774 79.68 41.3074 82.47L42.0074 82.79L42.6074 83.02V83.02ZM51.7474 88.3C56.7374 88.35 47.2374 87.62 51.7474 88.3V88.3ZM30.2474 74.6C30.0574 73.67 29.0174 74.68 30.2474 74.6V74.6ZM60.1874 93.04C60.3274 91.36 58.5674 94.29 60.1874 93.04V93.04ZM38.7674 79.82C38.4674 78.94 37.2074 79.78 38.7674 79.82V79.82ZM30.7274 74.02C33.5874 73.85 26.7974 72.76 30.7274 74.02V74.02ZM21.1874 67.86C20.8274 66.48 18.0674 65.39 21.1874 67.86V67.86ZM46.2174 83.74C45.6974 83.14 45.9674 83.87 46.2174 83.74V83.74ZM61.7974 93.3C61.7474 92.39 60.9474 93.65 61.7974 93.3V93.3ZM44.8374 82.32C45.1174 81.14 42.3974 81.96 44.8374 82.32V82.32ZM33.2374 74.96C35.3674 74.73 29.8174 73.52 33.2374 74.96V74.96ZM52.8674 87.16C56.1874 85.84 49.6274 86.52 52.8674 87.16V87.16ZM42.6574 80.23C46.4874 80.72 38.0974 77.62 41.8174 79.95L42.6574 80.23ZM55.9674 88.42C59.5474 86.28 58.3674 93.43 62.0374 89.02C65.6574 86.38 58.9074 92.29 63.3674 89.49C66.5974 87.33 71.3574 90.51 74.3674 91.55C76.5274 91.44 78.6374 93.42 80.8574 92.22C85.1274 91.07 72.4974 90.51 75.8074 88.47C71.8974 89.61 69.0074 87.11 67.0874 84.61C62.6974 83.6 57.6274 81.36 55.4374 77.47C54.5474 76.01 56.7274 77.68 54.6674 75.29C52.0274 72.94 50.7074 70.27 48.9374 67.41C46.8174 66.28 46.5674 62.95 46.3574 67.3C46.3774 64.56 43.7974 62.71 43.1674 63.48C43.1574 60.84 45.9274 62.16 43.9874 60.21C43.5674 57.47 42.1974 54.62 41.7874 51.53C41.1474 50.04 41.6974 46.85 39.5974 50.22C38.8374 53.79 39.3474 45.84 40.5374 48.46C42.0974 45.79 39.9774 46.1 39.8874 46.47C40.9074 44.21 40.5274 41.01 39.6174 42.23C40.1574 39.84 40.4774 33.43 38.8074 34.57C39.8174 32.07 40.7274 23.13 36.3374 26.54C34.5574 26.57 31.4874 27.18 30.0274 27.91C34.5874 30.42 29.5674 28.82 27.7074 28.42C27.4674 30.75 25.6274 29.74 23.3274 29.76C26.9974 30.21 21.5374 33.51 19.4374 32.23C16.6974 33.54 21.7974 36.8 19.4874 37.81C19.7674 39.33 15.2974 37.26 15.6474 40.77C12.9974 39.65 15.2874 44.93 16.6074 43.15C21.1174 44.37 19.7874 47.16 19.8974 49.8C19.1574 51.34 16.2674 46.18 19.2574 46.42C16.8974 42.59 16.6474 45.04 14.6974 46.81C14.2474 46.94 19.6874 49.34 16.2674 50.53C19.2774 51 19.3674 53.63 19.9774 55.29C21.7874 57.17 21.4174 53.21 23.5774 55.47C22.2074 53.45 16.3274 49.79 21.0574 50.96C21.0274 48.93 20.1974 47.29 21.6574 47.33C23.0974 44.73 20.1474 53.75 23.3874 50.44C24.2874 50.05 24.5074 47.84 26.1174 50.65C28.4574 52.95 26.9674 54.62 23.6574 52.51C24.2474 54.52 28.0774 55.23 27.3574 58.37C28.1174 61.13 29.1874 60.11 30.1174 59.95C30.8474 62.63 31.2574 60.66 31.2974 59.38C34.6374 60.1 33.8574 62.07 34.8974 63.45C37.1974 64.49 31.6074 56.41 35.5574 61.02C39.7174 64.77 37.1174 66.34 33.3874 65.74C35.7474 65.55 36.5074 68.93 39.4574 68.81C42.1474 70.09 43.9774 75.01 39.3374 72.96C37.7274 71.51 32.0274 69.72 36.6874 72.48C40.9874 74.47 44.3974 75.66 48.5474 78.16C51.5074 80.28 52.7974 82.7 53.9174 83.18C51.4274 84.37 46.4074 82.23 50.1374 81.57C47.8074 81.15 45.1974 79.97 47.4274 82.87C49.3174 84.45 54.1374 84.29 55.0074 84.46C54.2774 86.07 53.0174 86.2 55.0374 86.32C52.7874 87.54 55.7574 87.73 55.9674 88.42V88.42ZM51.3674 75.42C49.9974 73.99 49.6474 71.31 51.1274 73.64C51.8774 73.94 53.5574 78.02 51.3674 75.42ZM66.3574 84.94C67.2074 84.88 66.3774 85.59 66.3574 84.94V84.94ZM49.2074 71.91C49.1474 69.74 49.6974 73.58 49.2074 71.91V71.91ZM47.7174 69.9C45.9874 66.58 49.8874 70.85 47.7174 69.9V69.9ZM29.6574 57.44C30.6674 57.17 30.1574 59.17 29.6574 57.44V57.44ZM44.0274 65.23C44.6474 62.9 44.7574 67.19 44.0274 65.23V65.23ZM33.8774 58.17C33.1674 56.88 35.3774 59.38 33.8774 58.17V58.17ZM42.5874 60.96C40.9574 57.31 43.7474 58.96 42.9474 61.56L42.5874 60.96ZM27.5674 50.95C26.8374 49.75 25.6374 46.23 26.0174 45.16C26.3674 46.91 29.7374 52.69 27.6674 47.55C25.3874 43.25 30.3974 48.95 30.9174 50.02C31.1574 51.09 29.5074 49.73 30.6274 52.23C28.5874 49.38 29.4274 53.81 27.5674 50.95ZM22.9274 47.75C23.1174 44.96 23.9874 49.66 22.9274 47.75V47.75ZM25.0074 48.47C26.0074 46.36 26.6974 51.4 25.0074 48.47V48.47ZM19.9874 44.58C18.2574 42.86 17.0074 41.28 20.0674 43.51C21.2474 43.56 17.4474 39.91 20.3474 42.35C23.4074 42.91 21.8574 47.36 19.9874 44.58ZM22.6274 44.51C23.6274 43.52 23.1574 45.49 22.6274 44.51V44.51ZM24.2474 45.03C22.7274 42.18 26.0974 46.23 24.2474 45.03V45.03ZM21.0274 41.95C16.0074 37.48 27.3374 44.29 21.8474 42.78L21.0274 41.95ZM35.4174 50.31C33.2374 49.01 34.8374 41.13 35.5774 46.52C37.6874 45.84 35.4574 49.3 37.0374 49.27C36.7974 51.45 36.0874 52.24 35.4174 50.31ZM40.7474 53.46C40.9574 51.08 41.1974 55.08 40.7474 53.46V53.46ZM39.8174 52.54C40.0574 51.53 39.8474 53.74 39.8174 52.54V52.54ZM22.0074 40.48C18.7774 36.03 31.3874 44.99 24.0774 41.61C23.3074 41.4 22.3874 41.33 22.0074 40.48ZM32.2674 45.91C31.9574 42.16 32.9474 46.53 32.2674 45.91V45.91ZM40.0474 50.91C40.6474 48.77 40.0974 52.32 40.0474 50.91V50.91ZM22.5074 38.78C24.4274 38.37 30.4574 42.15 24.9174 39.86C24.2974 39.17 22.9874 39.48 22.5074 38.78ZM38.9774 46.99C39.1774 43.15 40.1274 44.7 38.9874 47.54L38.9774 46.99ZM23.9274 37.44C24.7074 36.29 21.8474 32.26 24.3374 35.99C25.4174 36.84 27.4474 37.42 25.6474 37.78C28.4874 40.28 24.9674 38.46 23.9274 37.44V37.44ZM38.1674 45.79C38.7074 41.42 38.6374 48.35 38.1674 45.79V45.79ZM22.2974 33.41C22.8974 33.15 22.6174 34.2 22.2974 33.41V33.41ZM26.0074 35.62C26.9674 33.61 27.7774 37.85 26.0074 35.62V35.62ZM36.4774 41.44C36.4774 40.67 36.6774 42.56 36.4774 41.44V41.44ZM35.8774 40.1C34.4274 36.51 37.2274 42 35.8774 40.1V40.1ZM34.9874 37.75C34.7374 36.27 35.8174 39.61 34.9874 37.75V37.75ZM36.4374 35.39C35.4374 33.63 37.6974 27.64 37.9474 31.36C36.8974 34.25 37.6474 35.87 38.3774 31.99C39.7374 28.93 38.0874 38.01 36.4374 35.39ZM37.9274 26.48C38.3674 25.95 38.0274 27.13 37.9274 26.48V26.48ZM35.4374 75.6C34.8474 75.08 35.5074 75.93 35.4374 75.6V75.6ZM40.5674 78.2C43.4274 78.94 43.4074 77.76 40.8274 77.41C39.4374 76.12 35.0574 74.75 38.9774 77.25C39.2474 77.9 40.0674 77.88 40.5674 78.2ZM30.4274 71.46C31.9974 72.64 36.3574 74.78 32.6674 71.91C33.9074 70.47 30.2874 69.7 31.4874 68.73C28.4274 66.86 29.0774 67.03 31.2174 67.09C27.5474 65.45 31.7474 65.57 31.5474 64.73C30.1274 64.45 24.5174 62.23 27.8174 64.91C24.4574 63.2 27.0174 65.55 25.9974 65.3C22.5574 64.36 29.0574 67.92 25.4574 67.03C27.4274 68.59 30.7574 71.03 26.2874 68.68C25.7174 69.53 29.4974 70.82 30.4274 71.46V71.46ZM35.7974 74.55C42.3274 76.65 32.5974 71.97 35.7974 74.55V74.55ZM63.2974 91.2C63.3774 89.9 62.3974 92.31 63.2974 91.2V91.2ZM66.1174 92.39C67.6274 90.93 66.1774 94.72 68.6174 92.03C68.6474 90.11 68.5474 88.97 65.8174 91.31C65.0674 91.73 64.7274 93.5 66.1174 92.39ZM21.2674 64.22C20.7974 62.4 18.0174 62.41 21.2674 64.22V64.22ZM24.2774 66.2C23.1574 64.34 20.2774 64.52 24.2774 66.2V66.2ZM41.4474 76.55C43.1274 78.04 49.1474 77.64 43.4774 76.73C42.6474 75.49 38.1574 75.79 41.4474 76.55ZM65.0474 91.12C67.6174 88.96 62.5474 92.09 65.0474 91.12V91.12ZM70.4074 94.81C70.4274 94.12 69.2974 95.11 70.4074 94.81V94.81ZM70.4174 93.84C73.2774 90.81 67.6474 94.02 70.4174 93.84V93.84ZM13.8374 58.01C11.4074 54.54 12.3274 52.98 9.97737 50.14C9.52737 47.97 5.94737 43.05 8.12737 48.26C10.1174 51.31 10.7074 56.03 13.8374 58.01ZM69.5174 92.88C74.7774 89.48 67.3674 91.4 69.5174 92.88V92.88ZM73.5274 94.45C76.1674 92.19 71.8674 93.98 73.5274 94.45V94.45ZM20.3674 60.38C21.1274 59.26 18.4274 60.24 20.3674 60.38V60.38ZM72.6974 93.37C75.2474 91.73 72.1074 91.98 72.2374 93.52L72.6974 93.37ZM38.1174 71.58C38.0274 70.47 36.7674 71.67 38.1174 71.58V71.58ZM40.2574 72.81C39.5674 71.43 39.2074 73.02 40.2574 72.81V72.81ZM76.7874 94.48C80.0574 92.12 74.8074 94.03 76.1074 94.93L76.7874 94.48ZM75.5274 93.88C78.1974 91.65 72.7274 94.87 75.5274 93.88V93.88ZM81.9174 98.13C83.7074 96.94 79.7474 97.75 81.9174 98.13V98.13ZM22.0074 59.57C24.3974 60.11 31.5674 65.46 27.3374 59.94C25.1674 59.3 26.4674 54 24.2574 54.94C25.7374 57.42 25.4774 58.47 22.3574 56.91C18.4474 55 20.1574 57.85 20.9274 58.64C19.8874 58.89 22.3174 59.55 22.0074 59.57V59.57ZM11.1074 50.96C11.5374 49.19 7.15737 41.21 9.03737 46.96C9.71737 48.17 9.64737 50.45 11.1074 50.96ZM31.1174 63.3C29.8874 62.27 31.0574 63.15 31.1174 63.3V63.3ZM34.1474 64.01C34.1474 62.13 30.7974 63.24 34.1474 64.01V64.01ZM60.4474 80.58C59.9474 79.3 58.4674 80.56 60.4474 80.58V80.58ZM61.7074 81.51C61.5274 80.79 60.9874 81.65 61.7074 81.51V81.51ZM72.1374 88.07C73.1374 87.33 70.8874 87.98 72.1374 88.07V88.07ZM16.5474 52.35C19.4174 51.24 13.4774 51.56 16.5474 52.35V52.35ZM58.1374 78.55C58.0974 76.69 56.3074 79.01 58.1374 78.55V78.55ZM15.4174 49.71C17.2574 49.09 13.7074 49.3 15.4174 49.71V49.71ZM20.7574 52.3C20.7274 51.69 20.1974 52.53 20.7574 52.3V52.3ZM85.9774 92.29C88.3474 91.81 93.7474 93.5 94.6174 91.66C91.7374 91.59 84.6674 89.63 84.3374 92.12L84.9674 92.22L85.9774 92.29V92.29ZM22.4574 52.73C22.5074 50.85 20.9974 52.66 22.4574 52.73V52.73ZM8.40737 42.98C7.76737 39.4 5.97737 42.44 8.40737 42.98V42.98ZM11.7574 43.82C11.7974 42.67 8.68737 42.79 11.7574 43.82V43.82ZM13.6674 44.76C13.1174 44.32 13.2374 45.33 13.6674 44.76V44.76ZM25.7274 52.49C26.2974 51.97 24.3774 52.11 25.7274 52.49V52.49ZM12.3974 42.64C12.0674 39.93 8.51737 42.24 12.3974 42.64V42.64ZM5.52737 38.18C5.42737 36.93 4.85737 38.65 5.52737 38.18V38.18ZM6.54737 37.41C6.37737 35.93 5.66737 37.6 6.54737 37.41V37.41ZM12.1974 40.78C14.5874 39.84 7.84737 38.84 11.7074 40.6L12.1974 40.78ZM87.7874 87.47C89.3174 86.07 85.8474 87.04 87.7874 87.47V87.47ZM96.9174 92.21C97.5274 90.4 95.3774 92.44 96.9174 92.21V92.21ZM12.7674 37.82C13.0274 36.07 10.8774 38.17 12.7674 37.82V37.82ZM4.73737 32.44C4.30737 29.97 4.36737 25.62 8.49737 27.09C2.98737 28.19 12.3174 33.94 11.1374 29.4C13.4574 29.51 15.6674 28.03 14.4574 30.28C19.0274 29.78 22.1874 25.82 26.5974 26.37C30.0374 25.91 33.7874 25.57 37.4874 24.19C40.5274 23.97 43.4574 20.69 41.7974 18.75C37.6474 18.4 33.2974 18.92 28.7174 19.83C23.6374 20.89 19.0174 22.89 13.8874 23.76C8.88737 24.43 14.8874 25.61 13.4574 25.87C10.8474 26.77 16.5674 27.39 13.1174 28.34C10.9874 27.93 8.76737 27.2 9.67737 24.96C4.88737 25.58 0.677372 27.57 4.46737 32.44H4.73737V32.44ZM16.2774 26.56C17.3974 22.42 22.2874 29.96 18.1174 27.11C17.6174 26.73 16.7974 26.43 16.2774 26.56ZM16.4974 24.55C18.1174 23.35 17.3574 25.23 16.4974 24.55V24.55ZM18.5574 24.59C18.7074 22.69 23.2674 25.6 19.3074 25.27L18.5574 24.59ZM21.3674 23.45C22.3974 22.25 21.6674 24.52 21.3674 23.45V23.45ZM22.0874 22.97C23.7974 20.91 31.7774 21.66 25.9374 22.77C24.3774 21.59 23.1774 23.47 22.0874 22.97ZM32.5074 21.37C32.2474 15.75 37.6874 23.36 32.5074 21.37V21.37ZM35.4674 21.35C36.5474 18.52 39.6674 20.21 35.9674 20.78C36.0474 21.08 35.8574 22.24 35.4674 21.35ZM11.6074 36.37C14.8374 34.39 8.17737 34.65 11.6074 36.37V36.37ZM13.9974 37.03C15.1274 35.83 11.5374 36.54 13.9974 37.03V37.03ZM6.95737 32.04C8.80737 30.62 4.77737 31.5 6.95737 32.04V32.04ZM102.307 91.69C102.357 90.04 100.897 92.43 102.307 91.69V91.69ZM92.6174 85.08C92.8974 83.18 91.3774 85.24 92.6174 85.08V85.08ZM104.977 92.33C107.557 92.34 112.797 91.53 107.177 91.53C106.297 91.66 102.047 91.64 104.977 92.33ZM16.0974 35.87C18.1874 35.73 19.3674 33.57 15.6874 33.69C9.99737 33.1 20.7074 35.64 14.9574 34.91C14.1874 35.42 16.0474 36.01 16.0974 35.87ZM17.9374 36.8C17.7174 35.46 17.2874 37.51 17.9374 36.8V36.8ZM20.1174 30.98C21.0174 29.86 18.8574 30.68 20.1174 30.98V30.98ZM13.1674 19.38C16.8974 18.11 21.9874 16.69 23.7474 20C21.9574 17.85 23.0274 15.72 24.7174 18.88C27.1074 22.07 28.3074 17.43 26.7474 16.36C28.5174 18.56 30.5374 19.6 27.9374 16.5C30.7674 13.1 22.2774 16.95 20.3474 16.91C19.4274 17.32 10.7674 19.11 13.1674 19.38ZM15.3574 15.2C17.4874 13.6 22.7074 16.16 19.3574 13.61C19.0274 13.31 12.0074 15.54 15.3574 15.2ZM23.1074 15.52C25.5974 15.58 22.0374 12.18 24.9974 13.72C24.5074 12.13 21.5474 11.83 20.0974 11.2C19.2774 12.65 21.7574 15.54 23.1074 15.52ZM16.7174 8.48004C17.5774 7.32004 15.2074 9.08004 16.7174 8.48004V8.48004ZM19.8774 9.24004C23.8874 8.71004 18.8574 7.52004 19.0674 9.20004L19.8774 9.24004ZM13.9674 4.62004C11.1474 0.930038 19.2774 5.24004 16.4074 1.38004C13.9974 -0.539963 11.6774 3.54004 13.9674 4.62004ZM50.1774 24.12C51.4674 21.83 44.8374 21.03 49.3074 23.31C49.7274 23.45 49.6274 24.28 50.1774 24.12Z" fill="#CCCCCC"/>
</g>
<defs>
<clipPath id="clip0_122_456">
<rect width="112" height="100" fill="white" transform="translate(0.5)"/>
</clipPath>
</defs>
</svg>
