<svg width="128" height="127" viewBox="0 0 128 127" fill="none" xmlns="http://www.w3.org/2000/svg">
<g clip-path="url(#clip0_122_428)">
<path d="M124.354 57.4945L69.2382 2.3805C66.0662 -0.7935 60.9182 -0.7935 57.7412 2.3805L46.2972 13.8265L60.8152 28.3445C64.1902 27.2055 68.0582 27.9695 70.7472 30.6585C73.4502 33.3645 74.2082 37.2655 73.0412 40.6515L87.0332 54.6445C90.4182 53.4775 94.3252 54.2315 97.0272 56.9395C100.807 60.7165 100.807 66.8395 97.0272 70.6185C96.1289 71.5172 95.0624 72.2301 93.8885 72.7166C92.7146 73.203 91.4564 73.4533 90.1857 73.4533C88.915 73.4533 87.6568 73.203 86.4829 72.7166C85.309 72.2301 84.2425 71.5172 83.3442 70.6185C81.9946 69.2681 81.0746 67.5486 80.7001 65.6765C80.3255 63.8043 80.5131 61.8632 81.2392 60.0975L68.1912 47.0495L68.1892 81.3905C69.1359 81.8567 70.0002 82.4741 70.7482 83.2185C74.5262 86.9955 74.5262 93.1165 70.7482 96.9015C66.9692 100.679 60.8442 100.679 57.0692 96.9015C53.2912 93.1175 53.2912 86.9965 57.0692 83.2185C57.9743 82.3119 59.0509 81.5946 60.2362 81.1085V46.4495C59.05 45.9647 57.9731 45.2469 57.0692 44.3385C54.2072 41.4785 53.5182 37.2785 54.9862 33.7625L40.6732 19.4495L2.8812 57.2395C1.35652 58.7647 0.5 60.8329 0.5 62.9895C0.5 65.1461 1.35652 67.2143 2.8812 68.7395L57.9982 123.854C61.1722 127.028 66.3182 127.028 69.4972 123.854L124.355 68.9955C125.88 67.4699 126.736 65.4014 126.736 63.2448C126.735 61.0881 125.879 59.0198 124.354 57.4945V57.4945Z" fill="#F34F29"/>
</g>
<defs>
<clipPath id="clip0_122_428">
<rect width="127" height="127" fill="white" transform="translate(0.5)"/>
</clipPath>
</defs>
</svg>
