<svg width="128" height="127" viewBox="0 0 128 127" fill="none" xmlns="http://www.w3.org/2000/svg">
<g clip-path="url(#clip0_122_424)">
<path fill-rule="evenodd" clip-rule="evenodd" d="M0.686646 0V125.792C1.68665 125.874 1.67665 126.027 2.04565 126.027C38.3146 126.038 74.7106 126.038 110.98 126.038C115.974 126.038 120.839 126.042 125.834 126.027C126.162 126.026 126.688 125.874 126.688 125.792L126.687 0H0.686646ZM114.687 62.914V111.465C114.687 113.153 114.434 113 112.807 113H15.4576C13.8306 113 13.6866 113.154 13.6866 111.466V14.24C13.6866 12.551 13.8306 12 15.5806 12H112.684C114.435 12 114.687 12.551 114.687 14.363V62.914ZM64.1006 39.368C63.8866 38.706 63.4886 38.672 62.9076 38.675C59.7936 38.694 56.6786 38.744 53.5666 38.675C52.5826 38.654 52.1556 38.949 51.8516 39.908C47.4666 53.693 43.0346 67.469 38.6186 81.244C37.8986 83.49 37.2016 85.745 36.4336 88.183C39.3446 88.183 42.0046 88.143 44.6626 88.209C45.5656 88.231 45.9416 87.934 46.1876 87.083C47.3256 83.159 48.5576 79.262 49.6846 75.335C49.9496 74.409 50.3786 74.159 51.3096 74.17C55.7336 74.222 60.1596 74.222 64.5836 74.17C65.4446 74.16 65.7946 74.438 66.0386 75.232C67.2516 79.181 68.5406 83.106 69.7526 87.055C70.0036 87.871 70.3186 88.185 71.2596 88.117C72.5678 88.0304 73.8787 87.9914 75.1896 88H79.7816L79.7606 87.669C74.5386 71.562 69.3096 55.479 64.1006 39.368V39.368ZM51.6876 67C53.7246 60 55.7466 53.152 57.7386 46.356C59.7916 53.128 61.8796 60 63.9986 67H51.6876ZM81.6866 88H91.6866V52H81.6866V88ZM86.7576 37.555C83.7946 37.558 81.6066 39.662 81.6266 42.491C81.6466 45.328 83.7486 47.348 86.6836 47.353C89.7346 47.357 91.8916 45.338 91.8706 42.497C91.8486 39.587 89.7436 37.552 86.7576 37.555Z" fill="#FAA625"/>
</g>
<defs>
<clipPath id="clip0_122_424">
<rect width="127" height="127" fill="white" transform="translate(0.353271)"/>
</clipPath>
</defs>
</svg>
