<svg width="127" height="127" viewBox="0 0 127 127" fill="none" xmlns="http://www.w3.org/2000/svg">
<path d="M0.907959 0.907959H126.092V126.093H0.907959V0.907959Z" fill="#F0DB4F"/>
<path d="M115.847 96.2361C114.93 90.5251 111.206 85.7281 100.175 81.2551C96.3431 79.4941 92.0711 78.2331 90.7981 75.3291C90.3461 73.6391 90.2861 72.6871 90.5721 71.6641C91.3931 68.3441 95.3561 67.3091 98.4971 68.2611C100.52 68.9391 102.435 70.4981 103.59 72.9851C108.992 69.4871 108.981 69.5101 112.753 67.1061C111.372 64.9651 110.635 63.9771 109.731 63.0611C106.482 59.4321 102.055 57.5631 94.9751 57.7061L91.2871 58.1831C87.7531 59.0761 84.3851 60.9311 82.4101 63.4181C76.4841 70.1421 78.1741 81.9101 85.3851 86.7531C92.4891 92.0851 102.925 93.2981 104.258 98.2841C105.555 104.388 99.7721 106.364 94.0241 105.662C89.7881 104.781 87.4321 102.628 84.8851 98.7131C80.1971 101.426 80.1971 101.426 75.3771 104.198C76.5201 106.697 77.7211 107.828 79.6371 109.993C88.7051 119.191 111.397 118.739 115.467 104.817C115.632 104.339 116.728 101.151 115.847 96.2361V96.2361ZM68.9621 58.4431H57.2531L57.2051 88.7151C57.2051 95.1531 57.5381 101.055 56.4911 102.864C54.7781 106.422 50.3391 105.981 48.3161 105.291C46.2571 104.279 45.2101 102.84 43.9971 100.806C43.6641 100.222 43.4141 99.7701 43.3301 99.7351L33.8101 105.565C35.3931 108.814 37.7251 111.634 40.7121 113.466C45.1741 116.144 51.1711 116.965 57.4431 115.525C61.5251 114.336 65.0471 111.873 66.8911 108.124C69.5571 103.209 68.9851 97.2601 68.9611 90.6801C69.0211 79.9451 68.9621 69.2121 68.9621 58.4431V58.4431Z" fill="#323330"/>
</svg>
