<svg width="94" height="126" viewBox="0 0 94 126" fill="none" xmlns="http://www.w3.org/2000/svg">
<g clip-path="url(#clip0_122_416)">
<path d="M30.6019 97.1201C30.6019 97.1201 25.8349 99.8941 33.9989 100.83C43.8909 101.96 48.9459 101.798 59.8439 99.7381C59.8439 99.7381 62.7149 101.533 66.7169 103.089C42.2779 113.559 11.4089 102.482 30.6019 97.1201ZM27.6139 83.4551C27.6139 83.4551 22.2659 87.4141 30.4369 88.2601C41.0039 89.3511 49.3469 89.4401 63.7909 86.6601C63.7909 86.6601 65.7839 88.6851 68.9229 89.7911C39.3809 98.4311 6.47692 90.4711 27.6139 83.4551V83.4551Z" fill="#0074BD"/>
<path d="M52.7869 60.271C58.8119 67.206 51.2069 73.441 51.2069 73.441C51.2069 73.441 66.4959 65.55 59.4759 55.664C52.9169 46.449 47.8889 41.872 75.1109 26.084C75.1109 26.085 32.3799 36.754 52.7869 60.271V60.271Z" fill="#EA2D2E"/>
<path d="M85.1078 107.229C85.1078 107.229 88.6368 110.139 81.2198 112.388C67.1178 116.66 22.5138 117.948 10.1258 112.559C5.67478 110.621 14.0248 107.934 16.6518 107.367C19.3908 106.774 20.9548 106.882 20.9548 106.882C16.0018 103.395 -11.0582 113.732 7.21178 116.697C57.0328 124.773 98.0288 113.06 85.1078 107.229V107.229ZM32.8968 69.294C32.8968 69.294 10.2108 74.683 24.8638 76.642C31.0518 77.47 43.3818 77.28 54.8748 76.316C64.2648 75.527 73.6878 73.842 73.6878 73.842C73.6878 73.842 70.3798 75.261 67.9838 76.895C44.9418 82.956 0.439783 80.133 13.2528 73.937C24.0848 68.698 32.8968 69.294 32.8968 69.294V69.294ZM73.5938 92.041C97.0148 79.874 86.1848 68.181 78.6258 69.756C76.7778 70.141 75.9488 70.476 75.9488 70.476C75.9488 70.476 76.6368 69.397 77.9488 68.933C92.9018 63.678 104.4 84.436 73.1258 92.658C73.1258 92.656 73.4848 92.331 73.5938 92.041V92.041Z" fill="#0074BD"/>
<path d="M59.4758 0.586914C59.4758 0.586914 72.4438 13.5629 47.1728 33.5099C26.9068 49.5159 42.5518 58.6399 47.1658 69.0689C35.3348 58.3959 26.6568 48.9989 32.4778 40.2539C41.0258 27.4199 64.7068 21.1949 59.4758 0.586914Z" fill="#EA2D2E"/>
<path d="M35.1988 125.021C57.6748 126.458 92.1988 124.221 93.0158 113.585C93.0158 113.585 91.4448 117.617 74.4388 120.816C55.2528 124.428 31.5848 124.007 17.5518 121.69C17.5518 121.691 20.4268 124.071 35.1988 125.021V125.021Z" fill="#0074BD"/>
</g>
<defs>
<clipPath id="clip0_122_416">
<rect width="93" height="126" fill="white" transform="translate(0.25)"/>
</clipPath>
</defs>
</svg>
