<svg width="55" height="120" viewBox="0 0 55 120" fill="none" xmlns="http://www.w3.org/2000/svg">
<g clip-path="url(#clip0_122_386)">
<path fill-rule="evenodd" clip-rule="evenodd" d="M54.241 53.2819C53.871 48.4919 52.745 43.8729 51.179 39.3479C47.935 29.2439 42.729 20.3019 35.396 12.6079C33.542 10.6619 31.48 8.87893 30.187 6.45693C29.369 4.92493 28.59 3.37193 27.793 1.82793L27.288 0.554932C27.203 0.846932 27.149 0.950932 27.146 1.05593C27.081 3.57293 25.655 5.27993 23.879 6.87293C21.882 8.66593 20.023 10.6119 18.104 12.4909L12.203 20.2539C10.611 23.1789 9.02098 26.1039 7.43098 29.0289L4.24098 37.6459L4.14498 37.7799C2.38898 43.5479 1.52298 49.4779 1.09698 55.4679C0.936979 57.7189 1.11898 60.0029 1.24598 62.2659C1.42698 65.5009 1.98898 68.6809 2.83198 71.8109C5.89398 83.1829 12.108 92.6159 20.603 100.63C22.182 102.119 23.802 103.473 25.45 104.89C25.732 103.925 25.957 102.96 26.213 101.995C26.469 101.034 26.728 100.078 26.901 99.1139C26.727 100.078 26.532 101.034 26.339 101.995L25.513 104.89L26.251 107.391L26.935 111.275L27.261 115.328C27.258 116.151 27.225 116.976 27.275 117.798C27.287 118.008 27.563 118.202 27.717 118.404L29.093 118.887L30.527 119.445L30.281 115.842L30.27 112.294L30.765 106.889L31.124 105.712L32.151 103.892C33.419 102.872 34.78 101.946 35.935 100.811C38.025 98.7569 40.11 96.6769 41.98 94.4279C44.414 91.5129 46.4923 88.3184 48.171 84.9119C49.293 82.6279 50.349 80.2979 51.223 77.9109C51.993 75.8069 52.47 73.5959 53.077 71.4319C53.131 71.2759 53.203 71.1229 53.237 70.9639C54.491 65.1229 54.702 59.2229 54.241 53.2819V53.2819ZM30.642 102.657L29.837 100.894L30.642 102.657L31.825 103.667L30.642 102.657Z" fill="#4FAA41"/>
</g>
<defs>
<clipPath id="clip0_122_386">
<rect width="54" height="120" fill="white" transform="translate(0.75)"/>
</clipPath>
</defs>
</svg>
