<svg width="127" height="124" viewBox="0 0 127 124" fill="none" xmlns="http://www.w3.org/2000/svg">
<path d="M125.477 120.783L122.861 118.246C120.382 114.954 117.193 112.062 113.846 109.661C111.177 107.745 105.185 105.157 104.071 102.052L103.866 101.857C105.759 101.643 107.969 100.959 109.716 100.49C112.65 99.704 115.072 99.907 118.102 99.125C119.468 98.735 121.001 98.344 122.001 97.954V97.174C121.001 95.603 119.574 93.523 117.904 92.101C113.535 88.381 108.863 84.664 103.953 81.564C101.23 79.846 97.912 78.729 95.027 77.272C94.056 76.781 92.375 76.526 91.733 75.71C90.216 73.778 89.405 71.328 88.235 69.077C85.786 64.36 83.386 59.209 81.216 54.246C79.736 50.862 78.773 47.526 76.927 44.49C68.067 29.923 58.532 21.132 43.76 12.49C40.615 10.652 36.831 9.92704 32.831 8.97704C30.687 8.84804 28.54 8.71704 26.394 8.58604C25.083 8.04004 23.72 6.43704 22.492 5.65904C17.596 2.56704 5.04297 -4.15796 1.41797 4.68404C-0.871029 10.265 4.83797 15.709 6.87997 18.538C8.31497 20.52 10.15 22.745 11.173 24.976C11.848 26.443 11.963 27.914 12.54 29.465C13.958 33.287 15.191 37.445 17.027 40.976C17.954 42.764 18.976 44.646 20.149 46.244C20.867 47.225 22.099 47.657 22.294 49.171C21.09 50.857 21.021 53.475 20.344 55.611C17.294 65.226 18.446 77.178 22.881 84.294C24.241 86.48 27.447 91.165 31.856 89.367C35.712 87.797 35.082 82.929 36.185 78.635C36.434 77.663 36 76.947 37 76.294V76.489C38.0231 78.8628 39.1176 81.2052 40.282 83.513C42.882 87.7 47.171 92.075 51.08 95.027C53.107 96.558 55 99.204 57 100.1V99.999H57.221C56.714 98.999 55.919 98.832 55.271 98.195C53.744 96.699 52.045 94.813 50.784 93.098C47.228 88.271 44.086 82.976 41.223 77.476C39.855 74.85 38.666 71.947 37.514 69.275C37.071 68.245 37.076 66.683 36.15 66.15C34.887 68.108 33.028 69.69 32.051 72.003C30.49 75.699 30.289 80.207 29.71 84.88C29.367 85.002 29.52 84.918 29.319 85.074C26.601 84.419 25.647 81.622 24.636 79.221C22.081 73.151 21.607 63.378 23.855 56.392C24.437 54.583 27.066 48.891 26.001 47.22C25.493 45.555 23.817 44.59 22.88 43.317C21.719 41.743 20.561 39.671 19.757 37.853C17.666 33.122 16.691 27.809 14.489 23.025C13.436 20.738 11.657 18.423 10.196 16.391C8.57897 14.138 6.76697 12.479 5.51197 9.75604C5.06697 8.78804 4.46097 7.23804 5.12197 6.24304C5.33197 5.57204 5.62897 5.29204 6.29297 5.07304C7.42597 4.20004 10.576 5.36304 11.756 5.85204C14.885 7.15204 17.497 8.35204 20.148 10.108C21.419 10.952 22.707 11.998 24.245 12.998H26.001C28.748 12.998 31.825 13.23 34.392 14.01C38.927 15.389 42.992 17.552 46.684 19.883C57.93 26.985 67.125 37.103 73.416 49.161C74.428 51.103 74.866 52.96 75.757 55.019C77.555 59.172 79.821 63.447 81.61 67.508C83.396 71.561 85.136 75.65 87.66 79.022C88.987 80.794 94.111 81.746 96.44 82.731C98.073 83.42 100.748 84.14 102.294 85.071C105.247 86.853 108.108 88.975 110.88 90.926C112.264 91.9 116.52 94.04 116.733 95.804C109.87 95.616 104.629 96.256 100.148 98.145C98.875 98.682 96.843 98.697 96.635 100.292C97.335 101.025 97.444 102.121 98 103.023C99.069 104.753 100.876 107.075 102.488 108.291C104.25 109.621 106.064 111.042 107.952 112.193C111.311 114.24 115.059 115.41 118.293 117.461C120.199 118.671 122.251 120.194 124.108 121.558C125.028 122.233 124.999 123.282 126.999 123.705V123.511C126 122.716 126.053 121.618 125.477 120.783V120.783ZM29.514 21.465C28.083 21.438 27 21.622 26 21.854V22H26.198C26.881 23 28.086 24.33 28.929 25.538L30.881 29.646L31.074 29.459C32.283 28.606 32.837 27.248 32.83 25.168C32.347 24.659 32.274 24.022 31.856 23.414C31.298 22.605 30.217 22.146 29.514 21.465V21.465Z" fill="#00618A"/>
</svg>
