<svg width="167" height="48" viewBox="0 0 167 48" fill="none" xmlns="http://www.w3.org/2000/svg">
<g clip-path="url(#clip0_122_311)">
<path d="M153.09 47.1607C152.689 47.1607 152.291 47.0556 151.94 46.8509L148.275 44.6827C147.727 44.3771 147.994 44.2678 148.176 44.2056C148.906 43.9512 149.054 43.8917 149.832 43.452C149.914 43.4063 150.02 43.4229 150.105 43.4727L152.919 45.1445C152.971 45.1725 153.029 45.1871 153.089 45.1871C153.148 45.1871 153.206 45.1725 153.259 45.1445L164.234 38.8099C164.286 38.7794 164.329 38.7359 164.358 38.6837C164.388 38.6316 164.403 38.5725 164.403 38.5126V25.846C164.403 25.7852 164.387 25.7253 164.357 25.6723C164.328 25.6192 164.285 25.5748 164.233 25.5432L153.261 19.214C153.21 19.1855 153.151 19.1705 153.092 19.1705C153.033 19.1705 152.975 19.1855 152.923 19.214L141.953 25.5445C141.901 25.576 141.858 25.6202 141.827 25.6729C141.797 25.7256 141.781 25.7852 141.78 25.846V38.5126C141.78 38.6342 141.848 38.749 141.953 38.8057L144.959 40.5439C146.591 41.3584 147.591 40.3987 147.591 39.4335V26.926C147.591 26.7503 147.733 26.6107 147.909 26.6107H149.301C149.474 26.6107 149.618 26.7503 149.618 26.926V39.4335C149.618 41.6101 148.433 42.8587 146.368 42.8587C145.733 42.8587 145.234 42.8587 143.84 42.1729L140.963 40.5162C140.613 40.3122 140.322 40.0199 140.12 39.6686C139.918 39.3173 139.812 38.9191 139.812 38.5139V25.8474C139.812 25.0246 140.251 24.2571 140.963 23.8478L151.938 17.5049C152.292 17.3123 152.688 17.2114 153.091 17.2114C153.493 17.2114 153.89 17.3123 154.243 17.5049L165.219 23.8478C165.929 24.2585 166.371 25.026 166.371 25.8474V38.5139C166.37 38.9192 166.263 39.3172 166.061 39.6684C165.859 40.0197 165.569 40.3119 165.219 40.5162L154.243 46.8523C153.893 47.0556 153.495 47.162 153.09 47.1607ZM156.482 38.4337C151.677 38.4337 150.671 36.2281 150.671 34.3793C150.672 34.2952 150.706 34.2147 150.765 34.1553C150.825 34.096 150.905 34.0627 150.99 34.0627H152.408C152.484 34.0624 152.558 34.0893 152.616 34.1385C152.673 34.1877 152.712 34.2559 152.724 34.3309C152.937 35.776 153.577 36.5047 156.482 36.5047C158.793 36.5047 159.777 35.982 159.777 34.7541C159.777 34.0461 159.498 33.522 155.905 33.1694C152.902 32.8721 151.045 32.2097 151.045 29.805C151.045 27.5911 152.912 26.2691 156.04 26.2691C159.556 26.2691 161.296 27.4902 161.516 30.1092C161.519 30.1533 161.513 30.1976 161.499 30.2394C161.485 30.2813 161.462 30.3198 161.433 30.3526C161.403 30.384 161.366 30.4092 161.327 30.4265C161.287 30.4438 161.244 30.453 161.2 30.4535H159.775C159.703 30.4536 159.633 30.4291 159.577 30.3841C159.521 30.3391 159.482 30.2762 159.466 30.206C159.123 28.6849 158.294 28.1995 156.038 28.1995C153.515 28.1995 153.221 29.0804 153.221 29.7372C153.221 30.5351 153.567 30.7674 156.976 31.2182C160.348 31.6649 161.951 32.2954 161.951 34.6669C161.952 37.0634 159.958 38.4337 156.482 38.4337" fill="#83CD29"/>
<path d="M130.491 30.126C130.924 29.8729 131.19 29.4111 131.19 28.9091V25.654C131.19 25.1534 130.925 24.6916 130.491 24.4385L118.925 17.7236C118.711 17.5992 118.468 17.5334 118.221 17.533C117.973 17.5325 117.73 17.5973 117.516 17.7208L105.878 24.4399C105.665 24.5634 105.487 24.7408 105.364 24.9544C105.241 25.168 105.176 25.4102 105.176 25.6567V39.0922C105.176 39.5969 105.447 40.0643 105.886 40.3146L117.451 46.9037C117.877 47.1484 118.399 47.1498 118.829 46.912L125.824 43.0235C125.933 42.9631 126.023 42.8748 126.087 42.7677C126.151 42.6606 126.184 42.5385 126.185 42.414C126.186 42.2895 126.154 42.167 126.092 42.0591C126.03 41.9511 125.94 41.8616 125.832 41.7997L114.122 35.0792C114.015 35.018 113.926 34.9295 113.863 34.8227C113.801 34.7158 113.768 34.5944 113.768 34.4708V30.2588C113.768 30.0071 113.902 29.7761 114.12 29.6517L117.766 27.5498C117.873 27.488 117.993 27.4555 118.117 27.4555C118.24 27.4555 118.361 27.488 118.467 27.5498L122.114 29.6517C122.221 29.713 122.309 29.8013 122.371 29.9079C122.433 30.0145 122.466 30.1355 122.466 30.2588V33.572C122.466 33.6959 122.498 33.8177 122.559 33.9252C122.621 34.0326 122.71 34.1218 122.817 34.1836C122.925 34.2454 123.047 34.2777 123.17 34.2772C123.294 34.2766 123.416 34.2432 123.523 34.1804L130.491 30.126" fill="#404137"/>
<path d="M118.048 29.4953C118.089 29.4723 118.136 29.4602 118.183 29.4602C118.23 29.4602 118.277 29.4723 118.318 29.4953L120.551 30.7855C120.634 30.8339 120.685 30.9237 120.685 31.0192V33.5981C120.685 33.6949 120.634 33.7834 120.551 33.8318L118.318 35.1206C118.277 35.1444 118.23 35.1569 118.183 35.1569C118.136 35.1569 118.089 35.1444 118.048 35.1206L115.816 33.8318C115.775 33.8083 115.741 33.7743 115.717 33.7332C115.693 33.6922 115.681 33.6456 115.681 33.5981V31.0192C115.681 30.9237 115.732 30.8339 115.816 30.7855L118.048 29.4953Z" fill="#83CD29"/>
<path d="M87.7631 34.8606C87.7631 34.985 87.6967 35.1012 87.5874 35.1648L83.5911 37.4685C83.5379 37.4998 83.4772 37.5162 83.4155 37.5162C83.3538 37.5162 83.2931 37.4998 83.2399 37.4685L79.2436 35.1648C79.1902 35.1338 79.146 35.0895 79.1152 35.0361C79.0844 34.9827 79.0681 34.9222 79.0679 34.8606V30.2447C79.0679 30.1203 79.1357 30.0027 79.2436 29.9391L83.2399 27.6326C83.2931 27.6007 83.3541 27.5838 83.4162 27.5838C83.4783 27.5838 83.5392 27.6007 83.5925 27.6326L87.5902 29.9391C87.6432 29.9707 87.6871 30.0154 87.7176 30.069C87.7481 30.1225 87.7643 30.1831 87.7644 30.2447V34.8606H87.7631ZM88.843 0.682962C88.7359 0.624412 88.6154 0.59463 88.4933 0.59652C88.3712 0.59841 88.2517 0.631905 88.1464 0.693744C88.0411 0.755583 87.9536 0.843653 87.8925 0.949366C87.8314 1.05508 87.7987 1.17483 87.7976 1.29693V19.156C87.7973 19.2421 87.7745 19.3266 87.7316 19.4013C87.6887 19.476 87.6271 19.5382 87.5529 19.5819C87.4779 19.6247 87.3931 19.6472 87.3067 19.6472C87.2204 19.6472 87.1356 19.6247 87.0606 19.5819L84.1456 17.9017C83.9322 17.7788 83.6902 17.7141 83.4438 17.7141C83.1975 17.7141 82.9555 17.7788 82.7421 17.9017L71.1016 24.6194C70.8877 24.7429 70.7101 24.9205 70.5865 25.1343C70.463 25.3482 70.3979 25.5907 70.3977 25.8377V39.2773C70.3977 39.7792 70.666 40.2425 71.1002 40.4955L82.7407 47.2174C83.1749 47.469 83.7114 47.469 84.147 47.2174L95.7903 40.4955C96.0037 40.3717 96.1809 40.194 96.3042 39.9802C96.4274 39.7664 96.4925 39.524 96.4928 39.2773V5.77586C96.4928 5.26698 96.2162 4.79683 95.7723 4.54792L88.843 0.682962Z" fill="#404137"/>
<path d="M47.8759 17.6486C48.0894 17.525 48.3317 17.46 48.5784 17.46C48.8251 17.46 49.0674 17.525 49.2809 17.6486L60.9214 24.3649C61.3556 24.6166 61.6239 25.0812 61.6239 25.5832V39.0269C61.6239 39.5288 61.3556 39.9935 60.9214 40.2452L49.2823 46.967C49.0683 47.09 48.8259 47.1548 48.5791 47.1548C48.3323 47.1548 48.0899 47.09 47.8759 46.967L36.2396 40.2452C36.0261 40.1213 35.849 39.9436 35.7257 39.7298C35.6024 39.516 35.5374 39.2737 35.5371 39.0269V25.5818C35.5371 25.0812 35.8054 24.6166 36.2396 24.3649L47.8759 17.6486" fill="#83CD29"/>
<path d="M26.708 25.4713C26.708 24.9652 26.4425 24.5005 26.0055 24.2503L14.3692 17.5533C14.1738 17.44 13.9533 17.3768 13.7276 17.3694H13.6073C13.3815 17.377 13.1611 17.4402 12.9656 17.5533L1.32788 24.2503C1.11378 24.3742 0.936052 24.5522 0.812511 24.7666C0.688971 24.9809 0.623967 25.2239 0.624023 25.4713L0.648914 43.5031C0.648914 43.7548 0.780282 43.9885 1.00015 44.1102C1.10543 44.174 1.22619 44.2078 1.34931 44.2078C1.47243 44.2078 1.59319 44.174 1.69847 44.1102L8.61253 40.1498C9.0495 39.8899 9.31638 39.4321 9.31638 38.9302V30.5061C9.31638 30.0028 9.58188 29.5395 10.0175 29.2878L12.9629 27.5925C13.1757 27.4674 13.4184 27.402 13.6653 27.4031C13.9059 27.4031 14.1521 27.4639 14.3664 27.5925L17.309 29.2878C17.7446 29.5395 18.0129 30.0028 18.0129 30.5061V38.9302C18.0129 39.4321 18.2825 39.8926 18.7167 40.1498L25.6308 44.1102C25.7374 44.1711 25.8581 44.203 25.9809 44.2027C26.1037 44.2024 26.2243 44.17 26.3306 44.1086C26.437 44.0471 26.5253 43.9589 26.5869 43.8527C26.6486 43.7465 26.6812 43.6259 26.6817 43.5031L26.708 25.4713" fill="#404137"/>
</g>
<defs>
<clipPath id="clip0_122_311">
<rect width="167" height="47" fill="white" transform="translate(0 0.5)"/>
</clipPath>
</defs>
</svg>
