<svg width="127" height="127" viewBox="0 0 127 127" fill="none" xmlns="http://www.w3.org/2000/svg">
<g clip-path="url(#clip0_122_460)">
<path fill-rule="evenodd" clip-rule="evenodd" d="M125.393 0.727037C89.1698 0.716037 53.1088 0.717037 16.8848 0.717037C11.7038 0.717037 6.43376 0.713037 1.25276 0.728037C0.924758 0.729037 0.176758 0.881037 0.176758 0.964037V127H126.177V0.964037C126.177 0.881037 125.763 0.727037 125.393 0.727037ZM112.657 114.666C80.0158 114.628 47.3858 114.636 14.7448 114.636C13.1688 114.636 13.1758 114.633 13.1758 113.009V15.212C13.1768 13.605 13.1608 14 14.7538 14H112.552C114.19 14 114.177 13.604 114.177 15.291V64.128C114.177 80.448 114.17 96.768 114.213 113.087C114.217 114.33 113.924 114.667 112.657 114.666ZM55.9968 39.644C49.3288 38.081 42.6168 38.852 35.9118 39.537C34.4888 39.683 34.2168 40.292 34.2208 41.555C34.2638 56.762 34.1768 71.969 34.1768 87.176V88H43.1768V70.139C48.1768 70.514 52.7528 70.425 57.2258 68.829C64.3948 66.271 67.9778 60.718 67.5908 52.61C67.2778 46.062 63.1648 41.324 55.9968 39.644V39.644ZM54.0438 61.988C50.8498 63.545 47.4538 63.508 44.0388 63.046C43.7728 63.01 43.3638 62.535 43.3618 62.262C43.3218 56.931 43.3318 51.601 43.3318 46.124C46.4628 45.636 49.4318 45.398 52.3938 46.142C56.0668 47.065 58.1978 49.461 58.5948 53.059C59.0308 57.013 57.3478 60.378 54.0438 61.988V61.988ZM87.3448 69.094C85.8758 68.289 84.2648 67.747 82.7388 67.041C81.3288 66.388 79.9058 65.745 78.5648 64.965C77.6298 64.422 77.2048 63.473 77.2048 62.354C77.2048 60.462 78.4988 58.937 80.7088 58.756C82.3578 58.621 84.0698 58.791 85.7028 59.096C87.0788 59.352 88.3838 59.995 89.7848 60.491L91.5518 54.222C88.2068 52.598 84.8028 51.987 81.2668 52.112C78.2608 52.217 75.4528 52.983 72.9148 54.711C68.1718 57.94 65.8578 66.518 72.9658 71.127C74.7708 72.298 76.8588 73.032 78.8168 73.968C80.0348 74.551 81.3058 75.047 82.4578 75.74C83.9098 76.614 84.4038 78.037 84.1518 79.68C83.9048 81.295 82.8218 82.318 81.3158 82.554C79.6358 82.818 77.8498 82.989 76.1978 82.698C73.8588 82.287 71.5988 81.417 69.2238 80.719C68.7978 82.309 68.3928 84.068 67.8398 85.779C67.5368 86.717 67.7148 87.18 68.6348 87.547C74.2518 89.778 79.9688 90.237 85.7168 88.264C90.0128 86.789 92.6318 83.74 92.9728 79.095C93.3048 74.568 91.2648 71.244 87.3448 69.094V69.094Z" fill="#80B5E2"/>
</g>
<defs>
<clipPath id="clip0_122_460">
<rect width="126" height="127" fill="white" transform="translate(0.176758)"/>
</clipPath>
</defs>
</svg>
