<svg width="103" height="116" viewBox="0 0 103 116" fill="none" xmlns="http://www.w3.org/2000/svg">
<g clip-path="url(#clip0_122_466)">
<path d="M50.7435 0.74811C46.5215 0.76811 42.4915 1.12711 38.9435 1.75511C28.4935 3.60111 26.5975 7.46511 26.5975 14.5921V24.0031H51.2905V27.1401H17.3295C10.1535 27.1401 3.8695 31.4531 1.9035 39.6611C-0.364503 49.0661 -0.464503 54.9361 1.9035 64.7571C3.6585 72.0681 7.8505 77.2761 15.0275 77.2761H23.5185V65.9941C23.5185 57.8431 30.5695 50.6541 38.9445 50.6541H63.6095C70.4755 50.6541 75.9555 45.0001 75.9555 38.1061V14.5931C75.9555 7.90011 70.3095 2.87311 63.6095 1.75611C59.3655 1.05011 54.9645 0.72911 50.7435 0.74811V0.74811ZM37.3895 8.31711C39.9395 8.31711 42.0235 10.4341 42.0235 13.0381C42.0235 15.6311 39.9405 17.7281 37.3895 17.7281C34.8295 17.7281 32.7565 15.6311 32.7565 13.0381C32.7555 10.4341 34.8295 8.31711 37.3895 8.31711V8.31711Z" fill="url(#paint0_linear_122_466)"/>
<path d="M79.0347 27.1399V38.1059C79.0347 46.6059 71.8267 53.7609 63.6087 53.7609H38.9437C32.1877 53.7609 26.5977 59.5439 26.5977 66.3099V89.8249C26.5977 96.5159 32.4157 100.453 38.9437 102.372C46.7597 104.669 54.2557 105.085 63.6087 102.372C69.8247 100.571 75.9547 96.9489 75.9547 89.8249V80.4129H51.2907V77.2749H88.3027C95.4787 77.2749 98.1546 72.2699 100.651 64.7559C103.229 57.0209 103.118 49.5819 100.651 39.6599C98.8766 32.5149 95.4897 27.1389 88.3027 27.1389H79.0347V27.1399ZM65.1617 86.6869C67.7227 86.6869 69.7957 88.7839 69.7957 91.3789C69.7957 93.9809 67.7217 96.0979 65.1617 96.0979C62.6117 96.0979 60.5287 93.9809 60.5287 91.3789C60.5287 88.7839 62.6117 86.6869 65.1617 86.6869V86.6869Z" fill="url(#paint1_linear_122_466)"/>
<path opacity="0.444" d="M84.6615 108.097C84.6615 111.64 69.8455 114.513 51.5705 114.513C33.2945 114.513 18.4785 111.64 18.4785 108.097C18.4785 104.553 33.2935 101.68 51.5705 101.68C69.8455 101.68 84.6615 104.552 84.6615 108.097Z" fill="url(#paint2_radial_122_466)"/>
</g>
<defs>
<linearGradient id="paint0_linear_122_466" x1="-2.31063" y1="3.69074" x2="54.6432" y2="52.2606" gradientUnits="userSpaceOnUse">
<stop stop-color="#5A9FD4"/>
<stop offset="1" stop-color="#306998"/>
</linearGradient>
<linearGradient id="paint1_linear_122_466" x1="76.0715" y1="82.4523" x2="55.647" y2="53.8101" gradientUnits="userSpaceOnUse">
<stop stop-color="#FFD43B"/>
<stop offset="1" stop-color="#FFE873"/>
</linearGradient>
<radialGradient id="paint2_radial_122_466" cx="0" cy="0" r="1" gradientUnits="userSpaceOnUse" gradientTransform="translate(51.4368 107.913) rotate(-90) scale(6.41832 28.2139)">
<stop stop-color="#B8B8B8" stop-opacity="0.498"/>
<stop offset="1" stop-color="#7F7F7F" stop-opacity="0"/>
</radialGradient>
<clipPath id="clip0_122_466">
<rect width="103" height="115" fill="white" transform="translate(0 0.5)"/>
</clipPath>
</defs>
</svg>
