<svg width="127" height="112" viewBox="0 0 127 112" fill="none" xmlns="http://www.w3.org/2000/svg">
<path d="M63.5001 67.4001C69.7961 67.4001 74.9001 62.2961 74.9001 56.0001C74.9001 49.7041 69.7961 44.6001 63.5001 44.6001C57.2041 44.6001 52.1001 49.7041 52.1001 56.0001C52.1001 62.2961 57.2041 67.4001 63.5001 67.4001Z" fill="#61DAFB"/>
<path d="M106.8 37.2001C104.6 36.4001 102.3 35.6001 99.9 34.9001C100.5 32.5001 101 30.1001 101.4 27.8001C103.5 14.6001 101.2 5.3001 94.8 1.7001C92.9 0.600097 90.8 0.100098 88.4 0.100098C81.4 0.100098 72.5 5.3001 63.5 14.0001C54.5 5.3001 45.6 0.100098 38.6 0.100098C36.2 0.100098 34.1 0.600097 32.2 1.7001C25.8 5.4001 23.5 14.7001 25.6 27.8001C26 30.1001 26.5 32.5001 27.1 34.9001C24.7 35.6001 22.4 36.3001 20.2 37.2001C7.70003 42.0001 0.900024 48.6001 0.900024 56.0001C0.900024 63.4001 7.80003 70.0001 20.2 74.8001C22.4 75.6001 24.7 76.4001 27.1 77.1001C26.5 79.5001 26 81.9001 25.6 84.2001C23.5 97.4001 25.8 106.7 32.2 110.3C34.1 111.4 36.2 111.9 38.6 111.9C45.7 111.9 54.6 106.7 63.5 98.0001C72.5 106.7 81.4 111.9 88.4 111.9C90.8 111.9 92.9 111.4 94.8 110.3C101.2 106.6 103.5 97.3001 101.4 84.2001C101 81.9001 100.5 79.5001 99.9 77.1001C102.3 76.4001 104.6 75.7001 106.8 74.8001C119.3 70.0001 126.1 63.4001 126.1 56.0001C126.1 48.6001 119.3 42.0001 106.8 37.2001V37.2001ZM92 6.7001C96.1 9.1001 97.5 16.5001 95.8 27.0001C95.5 29.1001 95 31.3001 94.4 33.6001C89.2 32.4001 83.7 31.6001 77.9 31.1001C74.5 26.3001 71 22.0001 67.5 18.1001C74.9 10.8001 82.4 5.8001 88.5 5.8001C89.8 5.8001 91 6.1001 92 6.7001V6.7001ZM80.8 66.0001C79 69.2001 76.9 72.4001 74.7 75.6001C71 75.9001 67.3 76.0001 63.5 76.0001C59.6 76.0001 55.9 75.9001 52.3 75.6001C50.1 72.4001 48.1 69.2001 46.3 66.0001C44.4 62.7001 42.6 59.3001 41 56.0001C42.6 52.7001 44.4 49.3001 46.3 46.0001C48.1 42.8001 50.2 39.6001 52.4 36.4001C56.1 36.1001 59.8 36.0001 63.6 36.0001C67.5 36.0001 71.2 36.1001 74.8 36.4001C77 39.6001 79 42.8001 80.8 46.0001C82.7 49.3001 84.5 52.7001 86.1 56.0001C84.4 59.3001 82.7 62.6001 80.8 66.0001ZM89.1 62.7001C90.6 66.2001 91.8 69.6001 92.9 73.0001C89.5 73.8001 85.9 74.4001 82.1 74.9001C83.3 73.0001 84.6 71.0001 85.7 68.9001C86.9 66.8001 88 64.7001 89.1 62.7001ZM63.5 89.8001C61.1 87.2001 58.8 84.4001 56.6 81.5001C58.9 81.6001 61.2 81.7001 63.5 81.7001C65.8 81.7001 68.1 81.6001 70.4 81.5001C68.2 84.4001 65.9 87.2001 63.5 89.8001ZM44.9 74.8001C41.1 74.3001 37.5 73.7001 34.1 72.9001C35.2 69.6001 36.4 66.1001 37.9 62.6001C39 64.6001 40.1 66.7001 41.3 68.7001C42.5 70.9001 43.7 72.8001 44.9 74.8001V74.8001ZM37.9 49.3001C36.4 45.8001 35.2 42.4001 34.1 39.0001C37.5 38.2001 41.1 37.6001 44.9 37.1001C43.7 39.0001 42.4 41.0001 41.3 43.1001C40.1 45.2001 39 47.3001 37.9 49.3001V49.3001ZM63.5 22.2001C65.9 24.8001 68.2 27.6001 70.4 30.5001C68.1 30.4001 65.8 30.3001 63.5 30.3001C61.2 30.3001 58.9 30.4001 56.6 30.5001C58.8 27.6001 61.1 24.8001 63.5 22.2001ZM85.7 43.2001L82.1 37.2001C85.9 37.7001 89.5 38.3001 92.9 39.1001C91.8 42.4001 90.6 45.9001 89.1 49.4001C88 47.3001 86.9 45.2001 85.7 43.2001ZM31.2 27.0001C29.5 16.5001 30.9 9.1001 35 6.7001C36 6.1001 37.2 5.8001 38.5 5.8001C44.5 5.8001 52 10.7001 59.5 18.1001C56 21.9001 52.5 26.3001 49.1 31.1001C43.3 31.6001 37.8 32.5001 32.6 33.6001C32 31.3001 31.6 29.1001 31.2 27.0001V27.0001ZM6.50002 56.0001C6.50002 51.3001 12.2 46.3001 22.2 42.6001C24.2 41.8001 26.4 41.1001 28.6 40.5001C30.2 45.5001 32.2 50.8001 34.6 56.1001C32.2 61.4001 30.1 66.6001 28.6 71.6001C14.8 67.6001 6.50002 61.6001 6.50002 56.0001ZM35 105.3C30.9 102.9 29.5 95.5001 31.2 85.0001C31.5 82.9001 32 80.7001 32.6 78.4001C37.8 79.6001 43.3 80.4001 49.1 80.9001C52.5 85.7001 56 90.0001 59.5 93.9001C52.1 101.2 44.6 106.2 38.5 106.2C37.2 106.2 36 105.9 35 105.3ZM95.8 85.0001C97.5 95.5001 96.1 102.9 92 105.3C91 105.9 89.8 106.2 88.5 106.2C82.5 106.2 75 101.3 67.5 93.9001C71 90.1001 74.5 85.7001 77.9 80.9001C83.7 80.4001 89.2 79.5001 94.4 78.4001C95 80.7001 95.4 82.9001 95.8 85.0001V85.0001ZM104.8 69.4001C102.8 70.2001 100.6 70.9001 98.4 71.5001C96.8 66.5001 94.8 61.2001 92.4 55.9001C94.8 50.6001 96.9 45.4001 98.4 40.4001C112.2 44.4001 120.5 50.4001 120.5 56.0001C120.5 60.7001 114.7 65.7001 104.8 69.4001Z" fill="#61DAFB"/>
</svg>
