<svg width="154" height="180" viewBox="0 0 154 180" fill="none" xmlns="http://www.w3.org/2000/svg">
<path d="M78.2336 23.9753H84.209V29.9507H78.2336V23.9753Z" fill="#CCCCCC"/>
<path d="M66.2828 23.9753H72.2582V29.9507H66.2828V23.9753Z" fill="#CCCCCC"/>
<path d="M72.2582 149.459H78.2336V155.434H72.2582V149.459Z" fill="#CCCCCC"/>
<path d="M12.5041 59.8279H18.4795V65.8033H12.5041V59.8279Z" fill="#CCCCCC"/>
<path d="M24.4549 59.8279H30.4303V65.8033H24.4549V59.8279Z" fill="#CCCCCC"/>
<path d="M36.4057 59.8279H42.3811V65.8033H36.4057V59.8279Z" fill="#CCCCCC"/>
<path d="M48.3566 59.8279H54.332V65.8033H48.3566V59.8279Z" fill="#CCCCCC"/>
<path d="M60.3074 59.8279H66.2828V65.8033H60.3074V59.8279Z" fill="#CCCCCC"/>
<path d="M105.123 113.606H111.098V119.582H105.123V113.606Z" fill="#CCCCCC"/>
<path d="M117.074 113.606H140.975V119.582H117.074V113.606Z" fill="#CCCCCC"/>
<path d="M105.123 125.557H140.975V131.533H105.123V125.557Z" fill="#CCCCCC"/>
<path d="M105.123 137.508H140.975V143.483H105.123V137.508Z" fill="#CCCCCC"/>
<path d="M24.4549 15.0124V47.8771H3.54099C1.89109 47.8771 0.553284 49.2149 0.553284 50.8648V74.7664C0.553284 75.5587 0.868061 76.319 1.42825 76.8792C1.98845 77.4394 2.74872 77.7542 3.54099 77.7542H24.4549V164.398C24.4549 165.19 24.7697 165.95 25.3299 166.51C25.8901 167.07 26.6504 167.385 27.4426 167.385H123.049C123.841 167.385 124.602 167.07 125.162 166.51C125.722 165.95 126.037 165.19 126.037 164.398V155.434H149.939C150.731 155.434 151.491 155.12 152.051 154.559C152.611 153.999 152.926 153.239 152.926 152.447V104.643C152.926 103.851 152.611 103.091 152.051 102.531C151.491 101.971 150.731 101.656 149.939 101.656H126.037V15.0124C126.037 14.2201 125.722 13.4598 125.162 12.8996C124.602 12.3394 123.841 12.0247 123.049 12.0247H27.4426C25.7927 12.0247 24.4549 13.3625 24.4549 15.0124ZM6.52869 53.8525H72.2582V71.7787H6.52869V53.8525ZM120.061 161.41H30.4303V143.484H93.1721V152.447C93.1721 153.239 93.4869 153.999 94.0471 154.559C94.6073 155.12 95.3676 155.434 96.1598 155.434H120.061V161.41ZM146.951 149.459H99.1475V107.631H146.951V149.459ZM96.1598 101.656C94.5099 101.656 93.1721 102.994 93.1721 104.643V137.508H30.4303V77.7542H75.2459C76.0382 77.7542 76.7985 77.4394 77.3586 76.8792C77.9188 76.319 78.2336 75.5587 78.2336 74.7664V50.8648C78.2336 50.0725 77.9188 49.3123 77.3586 48.7521C76.7984 48.1919 76.0382 47.8771 75.2459 47.8771H30.4303V41.9017H120.061V101.656H96.1598ZM120.061 18.0001V35.9263H30.4303V18.0001H120.061Z" fill="#CCCCCC"/>
<path d="M75.2459 86.7173H63.2951C61.6452 86.7173 60.3074 88.0551 60.3074 89.705V101.656C60.3074 102.448 60.6222 103.208 61.1824 103.769C61.7426 104.329 62.5028 104.644 63.2951 104.644H75.2459C76.0382 104.644 76.7985 104.329 77.3586 103.769C77.9188 103.208 78.2336 102.448 78.2336 101.656V89.705C78.2336 88.9127 77.9188 88.1524 77.3586 87.5923C76.7984 87.0321 76.0382 86.7173 75.2459 86.7173ZM72.2582 98.6681H66.2828V92.6927H72.2582V98.6681Z" fill="#CCCCCC"/>
<path d="M39.3934 104.644H51.3443C52.1365 104.644 52.8968 104.329 53.457 103.769C54.0172 103.208 54.332 102.448 54.332 101.656V89.705C54.332 88.9127 54.0172 88.1524 53.457 87.5923C52.8968 87.0321 52.1365 86.7173 51.3443 86.7173H39.3934C37.7435 86.7173 36.4057 88.0551 36.4057 89.705V101.656C36.4057 102.448 36.7205 103.208 37.2807 103.769C37.8409 104.329 38.6012 104.644 39.3934 104.644ZM42.3811 92.6927H48.3565V98.6681H42.3811V92.6927Z" fill="#CCCCCC"/>
<path d="M107.493 68.3572C109.775 66.1324 111.072 63.0886 111.099 59.9022C111.126 56.7144 109.877 53.6495 107.634 51.3871C105.389 49.1236 102.335 47.8513 99.1483 47.8513C95.9618 47.8513 92.9075 49.1238 90.6625 51.3871C88.4191 53.6492 87.1705 56.7144 87.1975 59.9022C87.2241 63.0886 88.5219 66.1323 90.8039 68.3572C86.6839 71.1328 84.2121 75.7746 84.2097 80.7417V92.6925C84.2097 93.4848 84.5245 94.245 85.0847 94.8052C85.6449 95.3654 86.4052 95.6802 87.1975 95.6802H111.099C111.891 95.6802 112.652 95.3654 113.212 94.8052C113.772 94.245 114.087 93.4848 114.087 92.6925V80.7417C114.084 75.7746 111.613 71.1329 107.493 68.3572ZM93.1729 59.8277C93.1729 58.2432 93.8024 56.7226 94.9228 55.6023C96.0432 54.4819 97.5637 53.8523 99.1483 53.8523C100.733 53.8523 102.253 54.4819 103.374 55.6023C104.494 56.7226 105.124 58.2432 105.124 59.8277C105.124 61.4123 104.494 62.9328 103.374 64.0532C102.253 65.1736 100.733 65.8032 99.1483 65.8032C97.5637 65.8032 96.0432 65.1736 94.9228 64.0532C93.8024 62.9328 93.1729 61.4123 93.1729 59.8277ZM108.111 89.7048H90.1852V80.7417C90.1852 77.5392 91.8937 74.5809 94.6667 72.9791C97.4397 71.3785 100.857 71.3785 103.63 72.9791C106.403 74.581 108.111 77.5392 108.111 80.7417V89.7048Z" fill="#CCCCCC"/>
<path d="M36.4057 110.619H42.3811V116.594H36.4057V110.619Z" fill="#CCCCCC"/>
<path d="M48.3566 110.619H78.2336V116.594H48.3566V110.619Z" fill="#CCCCCC"/>
<path d="M36.4057 122.57H78.2336V128.545H36.4057V122.57Z" fill="#CCCCCC"/>
<path d="M57.3197 173.361H117.074V179.336H57.3197V173.361Z" fill="#CCCCCC"/>
<path d="M12.5041 86.7173H18.4795V134.521H12.5041V86.7173Z" fill="#CCCCCC"/>
<path d="M137.988 12.0245C137.988 8.85546 136.729 5.81559 134.488 3.57361C132.246 1.33283 129.206 0.0737305 126.037 0.0737305H87.1967V6.04914H126.037C127.621 6.04914 129.142 6.67871 130.262 7.79908C131.383 8.91945 132.012 10.44 132.012 12.0245V59.8278H137.988V12.0245Z" fill="#CCCCCC"/>
<path d="M132.012 65.8032H137.988V71.7786H132.012V65.8032Z" fill="#CCCCCC"/>
</svg>
