<svg width="126" height="127" viewBox="0 0 126 127" fill="none" xmlns="http://www.w3.org/2000/svg">
<g clip-path="url(#clip0_122_472)">
<path d="M125.2 0.699951H1.1C0.7 0.699951 0 0.899951 0 0.999951V127H126V0.999951C126 0.899951 125.6 0.699951 125.2 0.699951ZM112.5 114.7H14.6C13 114.7 13 114.7 13 113.1V15.2C13 13.6 13 14 14.6 14H112.4C114 14 114 13.6 114 15.3V113.1C114 114.3 113.7 114.7 112.5 114.7V114.7ZM75.7 87.9C81.3 89.5 86.9 88.7 92.5 88C93.7 87.9 93.9 87.2 93.9 86V39.7999H86.4V57.5999C82.2 57.1999 78.4 57.3 74.7 58.9C68.7 61.4 65.7 67 66 75C66.2 81.5 69.7 86.2 75.7 87.9ZM76.9 66C79.7 64.4 82.6 64.5 85.5 64.9C85.7 64.9 86.1 65.4 86.1 65.7V81.8C83.4 82.3 80.8 82.5 78.3 81.8C75.1 80.9 73.3 78.5 72.9 74.9C72.6 71 74.1 67.6 76.9 66V66ZM43 88.1L51.1 70.6L58.9 88.1H67.8L56.1 63.2999L67.9 39.7H59.2L50.8 56.0999L44 39.7999L34.8 39.7L45.6 64.5999L34 88.1H43Z" fill="#DD80BC"/>
</g>
<defs>
<clipPath id="clip0_122_472">
<rect width="126" height="127" fill="white"/>
</clipPath>
</defs>
</svg>
